<?xml version="1.0" encoding="UTF-8"?>
<svg id="dash_keeb" data-name="dash keeb" xmlns="http://www.w3.org/2000/svg" viewBox="0 0 2727.34 925.66">
  <defs>
    <style>
      .cls-1 {
        font-size: 68.2px;
      }

      .cls-1, .cls-2, .cls-3, .cls-4, .cls-5, .cls-6, .cls-7, .cls-8, .cls-9, .cls-10, .cls-11, .cls-12, .cls-13, .cls-14, .cls-15, .cls-16, .cls-17, .cls-18, .cls-19, .cls-20, .cls-21, .cls-22, .cls-23, .cls-24, .cls-25, .cls-26, .cls-27, .cls-28, .cls-29, .cls-30, .cls-31, .cls-32, .cls-33, .cls-34, .cls-35 {
        fill: #000;
      }

      .cls-1, .cls-2, .cls-3, .cls-4, .cls-5, .cls-7, .cls-8, .cls-9, .cls-10, .cls-36, .cls-11, .cls-12, .cls-13, .cls-14, .cls-15, .cls-16, .cls-17, .cls-18, .cls-19, .cls-20, .cls-21, .cls-22, .cls-23, .cls-24, .cls-25, .cls-26, .cls-27, .cls-28, .cls-29, .cls-30, .cls-31, .cls-32, .cls-33, .cls-34, .cls-35 {
        isolation: isolate;
      }

      .cls-1, .cls-2, .cls-3, .cls-4, .cls-5, .cls-7, .cls-8, .cls-9, .cls-10, .cls-11, .cls-12, .cls-13, .cls-14, .cls-15, .cls-16, .cls-17, .cls-18, .cls-19, .cls-20, .cls-21, .cls-22, .cls-23, .cls-24, .cls-25, .cls-26, .cls-27, .cls-28, .cls-29, .cls-30, .cls-31, .cls-32, .cls-33, .cls-34, .cls-35 {
        font-family: Helvetica, MazinDEMO-Medium, 'Mazin DEMO';
        font-weight: 500;
      }

      .cls-2 {
        font-size: 65.68px;
      }

      .cls-3 {
        font-size: 44.8px;
      }

      .cls-37 {
        fill: #f9f4d9;
      }

      .cls-37, .cls-6, .cls-38, .cls-39 {
        stroke-width: 0px;
      }

      .cls-4 {
        font-size: 41.69px;
      }

      .cls-5 {
        font-size: 39px;
      }

      .cls-7 {
        font-size: 55.59px;
      }

      .cls-8 {
        font-size: 85.65px;
      }

      .cls-9 {
        font-size: 61.48px;
      }

      .cls-38 {
        fill: #c1b368;
      }

      .cls-10 {
        font-size: 61.56px;
      }

      .cls-11 {
        letter-spacing: -.08em;
      }

      .cls-11, .cls-20, .cls-22, .cls-25 {
        font-size: 75px;
      }

      .cls-12 {
        font-size: 88.99px;
      }

      .cls-13 {
        font-size: 59.55px;
      }

      .cls-14 {
        font-size: 44px;
      }

      .cls-39 {
        fill: none;
      }

      .cls-15 {
        font-size: 64.23px;
      }

      .cls-16 {
        font-size: 38.39px;
      }

      .cls-17 {
        font-size: 49px;
      }

      .cls-18, .cls-31 {
        font-size: 63px;
      }

      .cls-19 {
        font-size: 49.69px;
      }

      .cls-20 {
        letter-spacing: -.03em;
      }

      .cls-21 {
        font-size: 61.12px;
      }

      .cls-22 {
        letter-spacing: -.02em;
      }

      .cls-23 {
        font-size: 47px;
      }

      .cls-24 {
        font-size: 45.8px;
      }

      .cls-26 {
        font-size: 68.94px;
      }

      .cls-27 {
        font-size: 70.75px;
        letter-spacing: -.08em;
      }

      .cls-28 {
        font-size: 65.66px;
      }

      .cls-29 {
        font-size: 85.44px;
      }

      .cls-30 {
        font-size: 61.26px;
      }

      .cls-31 {
        letter-spacing: -.03em;
      }

      .cls-32 {
        font-size: 68.29px;
      }

      .cls-33 {
        font-size: 62.84px;
      }

      .cls-34 {
        font-size: 40.63px;
      }

      .cls-35 {
        font-size: 58.68px;
      }
    </style>
  </defs>
  <g id="key-tab">
    <path id="key-outline-tab" class="cls-38" d="M337.25,334.67c-29.21,0-58.42.01-87.63,0-12.99-.01-20.72-4.82-20.74-13.33-.1-39.72-.1-79.45,0-119.17.02-8.19,8.13-13.01,22.16-13.22,12.95-.19,25.91-.05,38.86-.05h131.06c19.37,0,25.98,4.48,25.98,17.51,0,37.69.01,75.37,0,113.06,0,10.38-7.25,15.19-22.83,15.2h-86.86Z"/>
    <path id="key-inline-tab" class="cls-37" d="M241.97,254.85c0-14.66-.04-29.33.02-43.99.03-7.97,7.1-12.18,20.54-12.19,49.09-.03,98.17-.02,147.26,0,15.3,0,24.03,5.1,24.09,14.45.14,23.26.05,46.52.05,69.78,0,4.72.06,9.44-.01,14.16-.13,8.6-9.75,14.85-24.39,14.9-48.23.18-96.46.17-144.69.01-14.58-.05-22.85-5.5-22.86-14.12-.02-14.33,0-28.66,0-42.99h0Z"/>
    <rect class="cls-39" x="305.85" y="239.1" width="68.13" height="29.87"/>
    <g id="key-text-tab" class="cls-36">
      <text class="cls-11" transform="translate(310.03 265.92)"><tspan x="0" y="0">T</tspan></text>
      <text class="cls-25" transform="translate(343.95 266.82)"><tspan x="0" y="0">ab</tspan></text>
    </g>
  </g>
  <g id="key-ControlLeft">
    <path id="key-outline-ControlLeft" class="cls-38" d="M328.83,485.9c-34.34,0-68.69.01-103.03,0-15.27-.01-24.36-4.82-24.39-13.33-.12-39.72-.12-79.45,0-119.17.03-8.19,9.56-13.01,26.06-13.22,15.22-.19,30.46-.05,45.69-.05,51.37,0,102.74-.01,154.1,0,22.78.01,30.55,4.48,30.55,17.51,0,37.69.01,75.37-.01,113.06,0,10.38-8.52,15.19-26.85,15.2h-102.12,0Z"/>
    <path id="key-inline-ControlLeft" class="cls-37" d="M213.33,405.04c0-14.66-.05-29.33.02-43.99.04-7.97,8.49-12.18,24.57-12.19,58.74-.03,117.47-.02,176.21-.01,18.31,0,28.76,5.1,28.83,14.45.17,23.26.06,46.52.06,69.78,0,4.72.07,9.44-.02,14.16-.16,8.6-11.67,14.85-29.18,14.9-57.71.18-115.42.17-173.14.01-17.45-.05-27.34-5.5-27.35-14.12v-42.99h0Z"/>
    <rect class="cls-39" x="286.06" y="394.07" width="93.62" height="29.87"/>
    <g id="key-text-ControlLeft" class="cls-36">
      <text class="cls-22" transform="translate(268.39 420.48)"><tspan x="0" y="0">L</tspan></text>
      <text class="cls-25" transform="translate(306.58 419.97)"><tspan x="0" y="0">Ctrl</tspan></text>
    </g>
  </g>
  <g id="key-lshift">
    <path id="key-outline-lshift" class="cls-38" d="M327.22,637.41c-44.59,0-89.17.01-133.76,0-19.82-.01-31.62-4.82-31.66-13.33-.15-39.72-.15-79.45,0-119.17.03-8.19,12.41-13.01,33.83-13.22,19.76-.19,39.54-.05,59.32-.05,66.69,0,133.37-.01,200.06,0,29.57.01,39.66,4.48,39.66,17.51,0,37.69.02,75.37-.01,113.06-.01,10.38-11.06,15.19-34.85,15.2-44.19.01-88.39,0-132.59,0h0Z"/>
    <path id="key-inline-lshift" class="cls-37" d="M177.28,556.54c0-14.66-.06-29.33.03-43.99.05-7.97,11.02-12.18,31.9-12.19,76.25-.03,152.5-.02,228.76-.01,23.77,0,37.33,5.1,37.42,14.45.22,23.26.08,46.52.08,69.78,0,4.72.09,9.44-.02,14.16-.2,8.6-15.15,14.85-37.88,14.9-74.92.18-149.84.17-224.76.01-22.65-.05-35.5-5.5-35.51-14.12-.04-14.34-.02-28.67-.02-42.99Z"/>
    <rect class="cls-39" x="277.27" y="545.07" width="104.11" height="29.87"/>
    <g id="key-text-lshift" class="cls-36">
      <text class="cls-25" transform="translate(254.83 569.57)"><tspan x="0" y="0">LShift</tspan></text>
    </g>
  </g>
  <g id="key-space">
    <path id="key-outline-space" class="cls-38" d="M1043.35,882.43c-43.55-9.53-87.1-19.06-130.64-28.61-19.36-4.25-29.84-11.56-28.02-20.03,8.5-39.54,17.15-79.05,25.96-118.53,1.82-8.14,14.96-10.29,35.92-5.92,19.35,4.03,38.63,8.41,57.95,12.64,65.13,14.26,130.27,28.51,195.4,42.78,28.88,6.33,37.76,12.94,34.93,25.9-8.2,37.49-16.4,74.97-24.63,112.45-2.27,10.32-14.11,12.75-37.35,7.67-43.18-9.43-86.35-18.89-129.52-28.35h0Z"/>
    <path id="key-inline-space" class="cls-37" d="M914.1,771.59c3.3-15.06,6.53-30.13,9.92-45.17,1.84-8.18,13.63-10.12,34.26-5.62,75.35,16.47,150.68,32.97,226.02,49.48,23.49,5.14,35.74,13.31,33.73,22.93-5.01,23.93-10.38,47.78-15.61,71.67-1.06,4.85-2.03,9.71-3.21,14.53-2.14,8.79-18.31,11.97-40.78,7.11-74.06-16.03-148.09-32.24-222.08-48.62-22.37-4.95-33.84-13.33-31.91-22.19,3.2-14.7,6.44-29.41,9.66-44.12h0Z"/>
    <rect class="cls-39" x="1047.62" y="752.58" width="29.87" height="104.11" transform="translate(49.27 1670.5) rotate(-77.65)"/>
    <g id="key-text-space" class="cls-36">
      <text class="cls-25" transform="translate(979.8 803.61) rotate(12.35)"><tspan x="0" y="0">Space</tspan></text>
    </g>
  </g>
  <g id="key-q">
    <path id="key-outline-q" class="cls-38" d="M528.9,333.01c-19.15,0-38.3.01-57.45,0-8.51-.01-13.58-4.73-13.6-13.08-.07-38.97-.07-77.93,0-116.9.01-8.03,5.33-12.76,14.53-12.97,8.49-.19,16.98-.05,25.48-.05h85.92c12.7,0,17.03,4.39,17.03,17.17,0,36.97.01,73.93,0,110.9,0,10.18-4.75,14.9-14.97,14.91-18.98.03-37.96.02-56.94.02Z"/>
    <path id="key-inline-q" class="cls-37" d="M472.57,251.48c0-14.48-.02-28.96.01-43.44.02-7.87,4.15-12.03,12.01-12.04,28.7-.03,57.4,0,86.1,0,8.95,0,14.05,5.04,14.09,14.27.08,22.97.03,45.94.03,68.91,0,4.66.03,9.32-.01,13.98-.08,8.5-5.7,14.66-14.26,14.72-28.2.17-56.4.17-84.59.01-8.52-.05-13.36-5.44-13.37-13.95-.02-14.16-.01-28.31-.01-42.45h0Z"/>
    <rect class="cls-39" x="515.39" y="239.1" width="68.13" height="29.87"/>
    <g id="key-text-q" class="cls-36">
      <text class="cls-25" transform="translate(515.39 265.03)"><tspan x="0" y="0">Q</tspan></text>
    </g>
  </g>
  <g id="key-a">
    <path id="key-outline-a" class="cls-38" d="M537.91,484.51c-19.15,0-38.3.01-57.45,0-8.51-.01-13.58-4.73-13.6-13.08-.07-38.97-.07-77.93,0-116.9.01-8.03,5.33-12.76,14.53-12.97,8.49-.19,16.98-.05,25.48-.05,28.64,0,57.28-.01,85.92,0,12.7.01,17.03,4.39,17.03,17.17,0,36.97.01,73.93,0,110.9,0,10.18-4.75,14.9-14.97,14.91-18.97.03-37.96.02-56.94.02h0Z"/>
    <path id="key-inline-a" class="cls-37" d="M481.58,402.98c0-14.48-.02-28.96.01-43.44.02-7.87,4.15-12.03,12.01-12.04,28.7-.03,57.4-.01,86.1-.01,8.95,0,14.05,5.04,14.09,14.27.08,22.97.03,45.94.03,68.91,0,4.66.03,9.32-.01,13.98-.08,8.5-5.7,14.66-14.26,14.72-28.2.17-56.4.17-84.59.01-8.52-.05-13.36-5.44-13.37-13.95-.02-14.15-.01-28.3-.01-42.45h0Z"/>
    <rect class="cls-39" x="524.4" y="390.61" width="68.13" height="29.87"/>
    <g id="key-text-a" class="cls-36">
      <text class="cls-25" transform="translate(524.4 416.54)"><tspan x="0" y="0">A</tspan></text>
    </g>
  </g>
  <g id="key-z">
    <path id="key-outline-z" class="cls-38" d="M573.91,635.99c-19.15,0-38.3.01-57.45,0-8.51-.01-13.58-4.73-13.6-13.08-.07-38.97-.07-77.93,0-116.9.01-8.03,5.33-12.76,14.53-12.97,8.49-.19,16.98-.05,25.48-.05,28.64,0,57.28-.01,85.92,0,12.7.01,17.03,4.39,17.03,17.17,0,36.97.01,73.93,0,110.9,0,10.18-4.75,14.9-14.97,14.91-18.97.03-37.96.02-56.94.02h0Z"/>
    <path id="key-inline-z" class="cls-37" d="M517.58,556.03c0-14.48-.02-28.96.01-43.44.02-7.87,4.15-12.03,12.01-12.04,28.7-.03,57.4-.01,86.1-.01,8.95,0,14.05,5.04,14.09,14.27.08,22.97.03,45.94.03,68.91,0,4.66.03,9.32-.01,13.98-.08,8.5-5.7,14.66-14.26,14.72-28.2.17-56.4.17-84.59.01-8.52-.05-13.36-5.44-13.37-13.95-.02-14.15-.01-28.3-.01-42.45h0Z"/>
    <rect class="cls-39" x="560.4" y="543.65" width="68.13" height="29.87"/>
    <g id="key-text-z" class="cls-36">
      <text class="cls-25" transform="translate(560.4 569.58)"><tspan x="0" y="0">Z</tspan></text>
    </g>
  </g>
  <g id="key-w">
    <path id="key-outline-w" class="cls-38" d="M674.38,332.6c-18.71-4.1-37.42-8.18-56.12-12.29-8.32-1.83-12.26-7.53-10.49-15.68,8.27-38.08,16.6-76.14,25-114.19,1.73-7.85,7.94-11.33,16.97-9.56,8.33,1.63,16.6,3.59,24.9,5.4,27.98,6.12,55.96,12.24,83.93,18.38,12.41,2.72,15.7,7.94,12.97,20.42-7.9,36.11-15.81,72.23-23.72,108.33-2.18,9.94-7.83,13.54-17.81,11.36-18.54-4.04-37.09-8.11-55.63-12.17h0Z"/>
    <path id="key-inline-w" class="cls-37" d="M636.79,240.9c3.1-14.15,6.17-28.3,9.3-42.44,1.7-7.69,6.63-10.87,14.3-9.19,28.04,6.11,56.07,12.26,84.11,18.41,8.74,1.92,12.65,7.92,10.71,16.95-4.83,22.46-9.8,44.88-14.71,67.32-1,4.55-1.96,9.11-3,13.66-1.89,8.28-8.71,13.1-17.08,11.33-27.58-5.86-55.13-11.9-82.64-18.09-8.32-1.87-11.89-8.17-10.07-16.49,3.02-13.81,6.05-27.63,9.08-41.46h0Z"/>
    <rect class="cls-39" x="678.38" y="238.27" width="29.87" height="40.47" transform="translate(292.5 880.49) rotate(-77.65)"/>
    <g id="key-text-w" class="cls-36">
      <text class="cls-25" transform="translate(671.18 264.93) rotate(12.35)"><tspan x="0" y="0">W</tspan></text>
    </g>
  </g>
  <g id="key-e">
    <path id="key-outline-e" class="cls-38" d="M822.3,364.08c-18.71-4.1-37.42-8.18-56.12-12.29-8.32-1.83-12.26-7.53-10.49-15.68,8.27-38.08,16.6-76.14,25-114.19,1.73-7.85,7.94-11.33,16.97-9.56,8.33,1.63,16.6,3.59,24.9,5.4,27.98,6.12,55.96,12.24,83.93,18.38,12.41,2.72,15.7,7.94,12.97,20.42-7.9,36.11-15.81,72.23-23.72,108.33-2.18,9.94-7.83,13.54-17.81,11.36-18.55-4.04-37.09-8.11-55.63-12.17Z"/>
    <path id="key-inline-e" class="cls-37" d="M784.7,272.39c3.1-14.15,6.17-28.3,9.3-42.44,1.7-7.69,6.63-10.87,14.3-9.19,28.04,6.11,56.07,12.26,84.11,18.41,8.74,1.92,12.65,7.92,10.71,16.95-4.83,22.46-9.8,44.88-14.71,67.32-1,4.55-1.96,9.11-3,13.66-1.89,8.28-8.71,13.1-17.08,11.33-27.58-5.86-55.13-11.9-82.64-18.09-8.32-1.87-11.89-8.17-10.07-16.49,3.02-13.82,6.06-27.64,9.08-41.46h0Z"/>
    <rect class="cls-39" x="827.07" y="269.11" width="29.87" height="42.07" transform="translate(378.49 1050.61) rotate(-77.65)"/>
    <g id="key-text-e" class="cls-36">
      <text class="cls-25" transform="translate(819.09 296.41) rotate(12.35)"><tspan x="0" y="0" xml:space="preserve"> E</tspan></text>
    </g>
  </g>
  <g id="key-r">
    <path id="key-outline-r" class="cls-38" d="M973.05,396.23c-18.71-4.1-37.42-8.18-56.12-12.29-8.32-1.83-12.26-7.53-10.49-15.68,8.27-38.08,16.6-76.14,25-114.19,1.73-7.85,7.94-11.33,16.97-9.56,8.33,1.63,16.6,3.59,24.9,5.4,27.98,6.12,55.96,12.24,83.93,18.38,12.41,2.72,15.7,7.94,12.97,20.42-7.9,36.11-15.81,72.23-23.72,108.33-2.18,9.94-7.83,13.54-17.81,11.36-18.55-4.04-37.09-8.1-55.63-12.17h0Z"/>
    <path id="key-inline-r" class="cls-37" d="M935.46,304.55c3.1-14.15,6.17-28.3,9.3-42.44,1.7-7.69,6.63-10.87,14.3-9.19,28.04,6.11,56.07,12.26,84.11,18.41,8.74,1.92,12.65,7.92,10.71,16.95-4.83,22.46-9.8,44.88-14.71,67.32-1,4.55-1.96,9.11-3,13.66-1.89,8.28-8.71,13.1-17.08,11.33-27.58-5.86-55.13-11.9-82.64-18.09-8.32-1.87-11.89-8.17-10.07-16.49,3.02-13.82,6.05-27.64,9.08-41.46h0Z"/>
    <rect class="cls-39" x="976.88" y="302.04" width="29.87" height="40.1" transform="translate(465.04 1222.06) rotate(-77.65)"/>
    <g id="key-text-r" class="cls-36">
      <text class="cls-25" transform="translate(969.85 328.58) rotate(12.35)"><tspan x="0" y="0" xml:space="preserve"> R</tspan></text>
    </g>
  </g>
  <g id="key-t">
    <path id="key-outline-t" class="cls-38" d="M1121.17,427.77c-18.71-4.1-37.42-8.18-56.12-12.29-8.32-1.83-12.26-7.53-10.49-15.68,8.27-38.08,16.6-76.14,25-114.19,1.73-7.85,7.94-11.33,16.97-9.56,8.33,1.63,16.6,3.59,24.9,5.4,27.98,6.12,55.96,12.24,83.93,18.38,12.41,2.72,15.7,7.94,12.97,20.42-7.9,36.11-15.81,72.23-23.72,108.33-2.18,9.94-7.83,13.54-17.81,11.36-18.54-4.04-37.08-8.11-55.63-12.17Z"/>
    <path id="key-inline-t" class="cls-37" d="M1083.58,336.08c3.1-14.15,6.17-28.3,9.3-42.44,1.7-7.69,6.63-10.87,14.3-9.19,28.04,6.11,56.07,12.26,84.11,18.41,8.74,1.92,12.65,7.92,10.71,16.95-4.83,22.46-9.8,44.88-14.71,67.32-1,4.55-1.96,9.11-3,13.66-1.89,8.28-8.71,13.1-17.08,11.33-27.58-5.86-55.13-11.9-82.64-18.09-8.32-1.87-11.89-8.17-10.07-16.49,3.02-13.82,6.05-27.64,9.08-41.46h0Z"/>
    <rect class="cls-39" x="1125.89" y="332.87" width="29.87" height="41.9" transform="translate(551.2 1392.57) rotate(-77.65)"/>
    <g id="key-text-t" class="cls-36">
      <text class="cls-25" transform="translate(1117.97 360.12) rotate(12.35)"><tspan x="0" y="0" xml:space="preserve"> T</tspan></text>
    </g>
  </g>
  <g id="key-s">
    <path id="key-outline-s" class="cls-38" d="M676.98,489.51c-18.71-4.1-37.42-8.18-56.12-12.29-8.32-1.83-12.26-7.53-10.49-15.68,8.27-38.08,16.6-76.14,25-114.19,1.73-7.85,7.94-11.33,16.97-9.56,8.33,1.63,16.6,3.59,24.9,5.4,27.98,6.12,55.96,12.24,83.93,18.38,12.41,2.72,15.7,7.94,12.97,20.42-7.9,36.11-15.81,72.23-23.72,108.33-2.18,9.94-7.83,13.54-17.81,11.36-18.54-4.04-37.09-8.11-55.63-12.17Z"/>
    <path id="key-inline-s" class="cls-37" d="M639.39,397.82c3.1-14.15,6.17-28.3,9.3-42.44,1.7-7.69,6.63-10.87,14.3-9.19,28.04,6.11,56.07,12.26,84.11,18.41,8.74,1.92,12.65,7.92,10.71,16.95-4.83,22.46-9.8,44.88-14.71,67.32-1,4.55-1.96,9.11-3,13.66-1.89,8.28-8.71,13.1-17.08,11.33-27.58-5.86-55.13-11.9-82.64-18.09-8.32-1.87-11.89-8.17-10.07-16.49,3.02-13.82,6.05-27.64,9.08-41.46h0Z"/>
    <rect class="cls-39" x="680.92" y="395.24" width="29.87" height="40.34" transform="translate(141.22 1006.31) rotate(-77.65)"/>
    <g id="key-text-s" class="cls-36">
      <text class="cls-25" transform="translate(673.78 421.84) rotate(12.35)"><tspan x="0" y="0" xml:space="preserve"> S</tspan></text>
    </g>
  </g>
  <g id="key-d">
    <path id="key-outline-d" class="cls-38" d="M829.44,521.68c-18.71-4.1-37.42-8.18-56.12-12.29-8.32-1.83-12.26-7.53-10.49-15.68,8.27-38.08,16.6-76.14,25-114.19,1.73-7.85,7.94-11.33,16.97-9.56,8.33,1.63,16.6,3.59,24.9,5.4,27.98,6.12,55.96,12.24,83.93,18.38,12.41,2.72,15.7,7.94,12.97,20.42-7.9,36.11-15.81,72.23-23.72,108.33-2.18,9.94-7.83,13.54-17.81,11.36-18.55-4.04-37.09-8.11-55.63-12.17h0Z"/>
    <path id="key-inline-d" class="cls-37" d="M791.84,430.01c3.1-14.15,6.17-28.3,9.3-42.44,1.7-7.69,6.63-10.87,14.3-9.19,28.04,6.11,56.07,12.26,84.11,18.41,8.74,1.92,12.65,7.92,10.71,16.95-4.83,22.46-9.8,44.88-14.71,67.32-1,4.55-1.96,9.11-3,13.66-1.89,8.28-8.71,13.1-17.08,11.33-27.58-5.86-55.13-11.9-82.64-18.09-8.32-1.87-11.89-8.17-10.07-16.49,3.03-13.82,6.06-27.64,9.08-41.46h0Z"/>
    <rect class="cls-39" x="832.52" y="428.1" width="29.87" height="38.58" transform="translate(229.16 1179.55) rotate(-77.65)"/>
    <g id="key-text-d" class="cls-36">
      <text class="cls-25" transform="translate(826.23 454.03) rotate(12.35)"><tspan x="0" y="0" xml:space="preserve"> D</tspan></text>
    </g>
  </g>
  <g id="key-f">
    <path id="key-outline-f" class="cls-38" d="M976.69,554.43c-18.71-4.1-37.42-8.18-56.12-12.29-8.32-1.83-12.26-7.53-10.49-15.68,8.27-38.08,16.6-76.14,25-114.19,1.73-7.85,7.94-11.33,16.97-9.56,8.33,1.63,16.6,3.59,24.9,5.4,27.98,6.12,55.96,12.24,83.93,18.38,12.41,2.72,15.7,7.94,12.97,20.42-7.9,36.11-15.81,72.23-23.72,108.33-2.18,9.94-7.83,13.54-17.81,11.36-18.54-4.05-37.08-8.11-55.63-12.17h0Z"/>
    <path id="key-inline-f" class="cls-37" d="M939.1,462.74c3.1-14.15,6.17-28.3,9.3-42.44,1.7-7.69,6.63-10.87,14.3-9.19,28.04,6.11,56.07,12.26,84.11,18.41,8.74,1.92,12.65,7.92,10.71,16.95-4.83,22.46-9.8,44.88-14.71,67.32-1,4.55-1.96,9.11-3,13.66-1.89,8.28-8.71,13.1-17.08,11.33-27.58-5.86-55.13-11.9-82.64-18.09-8.32-1.87-11.89-8.17-10.07-16.49,3.02-13.82,6.05-27.64,9.08-41.46h0Z"/>
    <rect class="cls-39" x="981.27" y="459.65" width="29.87" height="41.64" transform="translate(313.79 1350.86) rotate(-77.65)"/>
    <g id="key-text-f" class="cls-36">
      <text class="cls-25" transform="translate(973.49 486.77) rotate(12.35)"><tspan x="0" y="0" xml:space="preserve"> F</tspan></text>
    </g>
  </g>
  <g id="key-g">
    <path id="key-outline-g" class="cls-38" d="M1127.38,586.4c-18.71-4.1-37.42-8.18-56.12-12.29-8.32-1.83-12.26-7.53-10.49-15.68,8.27-38.08,16.6-76.14,25-114.19,1.73-7.85,7.94-11.33,16.97-9.56,8.33,1.63,16.6,3.59,24.9,5.4,27.98,6.12,55.96,12.24,83.93,18.38,12.41,2.72,15.7,7.94,12.97,20.42-7.9,36.11-15.81,72.23-23.72,108.33-2.18,9.94-7.83,13.54-17.81,11.36-18.55-4.05-37.09-8.11-55.63-12.17h0Z"/>
    <path id="key-inline-g" class="cls-37" d="M1089.79,494.7c3.1-14.15,6.17-28.3,9.3-42.44,1.7-7.69,6.63-10.87,14.3-9.19,28.04,6.11,56.07,12.26,84.11,18.41,8.74,1.92,12.65,7.92,10.71,16.95-4.83,22.46-9.8,44.88-14.71,67.32-1,4.55-1.96,9.11-3,13.66-1.89,8.28-8.71,13.1-17.08,11.33-27.58-5.86-55.13-11.9-82.64-18.09-8.32-1.87-11.89-8.17-10.07-16.49,3.02-13.82,6.05-27.64,9.08-41.46h0Z"/>
    <rect class="cls-39" x="1129.62" y="487.37" width="29.87" height="45.55" transform="translate(401.41 1519.1) rotate(-77.65)"/>
    <g id="key-text-g" class="cls-36">
      <text class="cls-25" transform="translate(1119.91 516.05) rotate(12.35)"><tspan x="0" y="0" xml:space="preserve"> G</tspan></text>
    </g>
  </g>
  <g id="key-b">
    <path id="key-outline-b" class="cls-38" d="M1169.61,749.97c-18.71-4.1-37.42-8.18-56.12-12.29-8.32-1.83-12.26-7.53-10.49-15.68,8.27-38.08,16.6-76.14,25-114.19,1.73-7.85,7.94-11.33,16.97-9.56,8.33,1.63,16.6,3.59,24.9,5.4,27.98,6.12,55.96,12.24,83.93,18.38,12.41,2.72,15.7,7.94,12.97,20.42-7.9,36.11-15.81,72.23-23.72,108.33-2.18,9.94-7.83,13.54-17.81,11.36-18.54-4.04-37.08-8.11-55.63-12.17h0Z"/>
    <path id="key-inline-b" class="cls-37" d="M1132.02,658.28c3.1-14.15,6.17-28.3,9.3-42.44,1.7-7.69,6.63-10.87,14.3-9.19,28.04,6.11,56.07,12.26,84.11,18.41,8.74,1.92,12.65,7.92,10.71,16.95-4.83,22.46-9.8,44.88-14.71,67.32-1,4.55-1.96,9.11-3,13.66-1.89,8.28-8.71,13.1-17.08,11.33-27.58-5.86-55.13-11.9-82.64-18.09-8.32-1.87-11.89-8.17-10.07-16.49,3.02-13.82,6.05-27.64,9.08-41.46h0Z"/>
    <rect class="cls-39" x="1171.65" y="651.13" width="29.87" height="45.13" transform="translate(274.7 1688.73) rotate(-77.65)"/>
    <g id="key-text-b" class="cls-36">
      <text class="cls-25" transform="translate(1162.15 679.64) rotate(12.35)"><tspan x="0" y="0" xml:space="preserve"> B</tspan></text>
    </g>
  </g>
  <g id="key-c">
    <path id="key-outline-c" class="cls-38" d="M871.23,685.74c-18.71-4.1-37.42-8.18-56.12-12.29-8.32-1.83-12.26-7.53-10.49-15.68,8.27-38.08,16.6-76.14,25-114.19,1.73-7.85,7.94-11.33,16.97-9.56,8.33,1.63,16.6,3.59,24.9,5.4,27.98,6.12,55.96,12.24,83.93,18.38,12.41,2.72,15.7,7.94,12.97,20.42-7.9,36.11-15.81,72.23-23.72,108.33-2.18,9.94-7.83,13.54-17.81,11.36-18.55-4.04-37.09-8.11-55.63-12.17h0Z"/>
    <path id="key-inline-c" class="cls-37" d="M833.64,594.05c3.1-14.15,6.17-28.3,9.3-42.44,1.7-7.69,6.63-10.87,14.3-9.19,28.04,6.11,56.07,12.26,84.11,18.41,8.74,1.92,12.65,7.92,10.71,16.95-4.83,22.46-9.8,44.88-14.71,67.32-1,4.55-1.96,9.11-3,13.66-1.89,8.28-8.71,13.1-17.08,11.33-27.58-5.86-55.13-11.9-82.64-18.09-8.32-1.87-11.89-8.17-10.07-16.49,3.02-13.82,6.05-27.64,9.08-41.46h0Z"/>
    <rect class="cls-39" x="873.18" y="586.98" width="29.87" height="44.98" transform="translate(102.8 1346.67) rotate(-77.65)"/>
    <g id="key-text-c" class="cls-36">
      <text class="cls-25" transform="translate(863.76 615.41) rotate(12.35)"><tspan x="0" y="0" xml:space="preserve"> C</tspan></text>
    </g>
  </g>
  <g id="key-v">
    <path id="key-outline-v" class="cls-38" d="M1019.05,718.03c-18.71-4.1-37.42-8.18-56.12-12.29-8.32-1.83-12.26-7.53-10.49-15.68,8.27-38.08,16.6-76.14,25-114.19,1.73-7.85,7.94-11.33,16.97-9.56,8.33,1.63,16.6,3.59,24.9,5.4,27.98,6.12,55.96,12.24,83.93,18.38,12.41,2.72,15.7,7.94,12.97,20.42-7.9,36.11-15.81,72.23-23.72,108.33-2.18,9.94-7.83,13.54-17.81,11.36-18.55-4.04-37.09-8.11-55.63-12.17h0Z"/>
    <path id="key-inline-v" class="cls-37" d="M981.45,626.34c3.1-14.15,6.17-28.3,9.3-42.44,1.7-7.69,6.63-10.87,14.3-9.19,28.04,6.11,56.07,12.26,84.11,18.41,8.74,1.92,12.65,7.92,10.71,16.95-4.83,22.46-9.8,44.88-14.71,67.32-1,4.55-1.96,9.11-3,13.66-1.89,8.28-8.71,13.1-17.08,11.33-27.58-5.86-55.13-11.9-82.64-18.09-8.32-1.87-11.89-8.17-10.07-16.49,3.02-13.82,6.06-27.64,9.08-41.46h0Z"/>
    <rect class="cls-39" x="1020.61" y="619.56" width="29.87" height="44.19" transform="translate(187.26 1516) rotate(-77.65)"/>
    <g id="key-text-v" class="cls-36">
      <text class="cls-25" transform="translate(1011.58 647.68) rotate(12.35)"><tspan x="0" y="0" xml:space="preserve"> V</tspan></text>
    </g>
  </g>
  <g id="key-x">
    <path id="key-outline-x" class="cls-38" d="M723.19,655.14c-18.71-4.1-37.42-8.18-56.12-12.29-8.32-1.83-12.26-7.53-10.49-15.68,8.27-38.08,16.6-76.14,25-114.19,1.73-7.85,7.94-11.33,16.97-9.56,8.33,1.63,16.6,3.59,24.9,5.4,27.98,6.12,55.96,12.24,83.93,18.38,12.41,2.72,15.7,7.94,12.97,20.42-7.9,36.11-15.81,72.23-23.72,108.33-2.18,9.94-7.83,13.54-17.81,11.36-18.55-4.04-37.09-8.11-55.63-12.17h0Z"/>
    <path id="key-inline-x" class="cls-37" d="M685.59,563.45c3.1-14.15,6.17-28.3,9.3-42.44,1.7-7.69,6.63-10.87,14.3-9.19,28.04,6.11,56.07,12.26,84.11,18.41,8.74,1.92,12.65,7.92,10.71,16.95-4.83,22.46-9.8,44.88-14.71,67.32-1,4.55-1.96,9.11-3,13.66-1.89,8.28-8.71,13.1-17.08,11.33-27.58-5.86-55.13-11.9-82.64-18.09-8.32-1.87-11.89-8.17-10.07-16.49,3.02-13.82,6.06-27.64,9.08-41.46h0Z"/>
    <rect class="cls-39" x="726.46" y="555.3" width="29.87" height="47.7" transform="translate(17.08 1179.51) rotate(-77.65)"/>
    <g id="key-text-x" class="cls-36">
      <text class="cls-25" transform="translate(715.72 584.8) rotate(12.35)"><tspan x="0" y="0" xml:space="preserve"> X</tspan></text>
    </g>
  </g>
  <g id="key-til">
    <path id="key-outline-til" class="cls-38" d="M339.5,178.99h-57.45c-8.51,0-13.58-4.73-13.6-13.08-.07-38.97-.07-77.93,0-116.9.01-8.03,5.33-12.76,14.53-12.97,8.49-.19,16.98-.05,25.48-.05h85.92c12.7,0,17.03,4.39,17.03,17.17,0,36.97.01,73.93,0,110.9,0,10.18-4.75,14.9-14.97,14.91-18.97.03-37.96.02-56.94.02h0Z"/>
    <path id="key-inline-til" class="cls-37" d="M280.22,100.48c0-14.48-.02-28.96.01-43.44.02-7.87,4.27-12.03,12.35-12.04,29.53-.03,59.05,0,88.58,0,9.21,0,14.46,5.04,14.49,14.27.09,22.97.03,45.94.03,68.91,0,4.66.03,9.32-.01,13.98-.08,8.5-5.87,14.66-14.67,14.72-29.01.17-58.02.17-87.03,0-8.77-.05-13.75-5.44-13.75-13.95v-42.45Z"/>
    <rect class="cls-39" x="308.5" y="69.82" width="58.92" height="75.65"/>
    <g id="key-text-til" class="cls-36">
      <g class="cls-36">
        <text class="cls-25" transform="translate(347.1 92.79)"><tspan x="0" y="0">~</tspan></text>
      </g>
      <g class="cls-36">
        <text class="cls-25" transform="translate(361.88 157.99)"><tspan x="0" y="0">`</tspan></text>
      </g>
    </g>
  </g>
  <g id="key-1">
    <g id="key-1-2" data-name="key-1">
      <path id="key-outline-1" class="cls-38" d="M490.31,179.17h-57.45c-8.51,0-13.58-4.73-13.6-13.08-.07-38.97-.07-77.93,0-116.9.01-8.03,5.33-12.76,14.53-12.97,8.49-.19,16.98-.05,25.48-.05h85.92c12.7,0,17.03,4.39,17.03,17.17,0,36.97.01,73.93,0,110.9,0,10.18-4.75,14.9-14.97,14.91-18.97.03-37.96.02-56.94.02h0Z"/>
      <path id="key-inline-1" class="cls-37" d="M431.03,100.66c0-14.48-.02-28.96.01-43.44.02-7.87,4.27-12.03,12.35-12.04,29.53-.03,59.05,0,88.58,0,9.21,0,14.46,5.04,14.49,14.27.09,22.97.03,45.94.03,68.91,0,4.66.03,9.32-.01,13.98-.08,8.5-5.87,14.66-14.67,14.72-29.01.17-58.02.17-87.03,0-8.77-.05-13.75-5.44-13.75-13.95v-42.45Z"/>
      <rect class="cls-39" x="459.31" y="70" width="58.92" height="75.65"/>
      <g id="key-text-1" class="cls-36">
        <g class="cls-36">
          <text class="cls-7" transform="translate(512.03 92.79) scale(1.3 1)"><tspan x="0" y="0">!</tspan></text>
        </g>
        <g class="cls-36">
          <text class="cls-13" transform="translate(504.79 143.02) scale(1.11 1)"><tspan x="0" y="0">1</tspan></text>
        </g>
      </g>
    </g>
  </g>
  <g id="key-2">
    <g id="key-2-2" data-name="key-2">
      <path id="key-outline-2" class="cls-38" d="M644.36,157.99h-57.45c-8.51,0-13.58-4.73-13.6-13.08-.07-38.97-.07-77.93,0-116.9.01-8.03,5.33-12.76,14.53-12.97,8.49-.19,16.98-.05,25.48-.05h85.92c12.7,0,17.03,4.39,17.03,17.17,0,36.97.01,73.93,0,110.9,0,10.18-4.75,14.9-14.97,14.91-18.97.03-37.96.02-56.94.02h0Z"/>
      <path id="key-inline-2" class="cls-37" d="M585.08,79.48c0-14.48-.02-28.96.01-43.44.02-7.87,4.27-12.03,12.35-12.04,29.53-.03,59.05,0,88.58,0,9.21,0,14.46,5.04,14.49,14.27.09,22.97.03,45.94.03,68.91,0,4.66.03,9.32-.01,13.98-.08,8.5-5.87,14.66-14.67,14.72-29.01.17-58.02.17-87.03,0-8.77-.05-13.75-5.44-13.75-13.95v-42.45Z"/>
      <rect class="cls-39" x="613.36" y="48.82" width="58.92" height="75.65"/>
      <g id="key-text-2" class="cls-36">
        <g class="cls-36">
          <text class="cls-3" transform="translate(652.44 59.62) scale(.99 1)"><tspan x="0" y="0">@</tspan></text>
        </g>
        <g class="cls-36">
          <text class="cls-33" transform="translate(657.1 124.84) scale(.94 1)"><tspan x="0" y="0">2</tspan></text>
        </g>
      </g>
    </g>
  </g>
  <g id="key-3">
    <g id="key-3-2" data-name="key-3">
      <path id="key-outline-3" class="cls-38" d="M781.22,201c-18.71-4.1-37.41-8.19-56.12-12.29-8.31-1.82-12.25-7.53-10.49-15.69,8.27-38.08,16.6-76.14,25-114.19,1.73-7.84,7.94-11.32,16.97-9.56,8.33,1.63,16.6,3.58,24.9,5.4,27.98,6.13,55.95,12.25,83.93,18.38,12.41,2.72,15.7,7.93,12.96,20.42-7.91,36.11-15.8,72.22-23.72,108.33-2.18,9.94-7.83,13.54-17.81,11.36-18.54-4.03-37.09-8.1-55.63-12.16h0Z"/>
      <path id="key-inline-3" class="cls-37" d="M740.1,111.63c3.1-14.14,6.17-28.29,9.3-42.43,1.7-7.68,6.74-10.84,14.64-9.12,28.85,6.29,57.68,12.63,86.53,18.95,9,1.97,13.05,8.02,11.1,17.04-4.82,22.46-9.8,44.88-14.71,67.32-1,4.55-1.96,9.11-3,13.65-1.9,8.29-8.87,13.07-17.48,11.24-28.38-6.04-56.71-12.24-85.02-18.61-8.56-1.92-12.27-8.26-10.45-16.57,3.03-13.82,6.05-27.65,9.08-41.47Z"/>
      <rect class="cls-39" x="757.15" y="101.52" width="75.65" height="58.92" transform="translate(497 879.54) rotate(-77.65)"/>
      <g id="key-text-3" class="cls-36">
        <g class="cls-36">
          <text class="cls-3" transform="translate(818.26 114.04) rotate(12.35) scale(.99 1)"><tspan x="0" y="0">#</tspan></text>
        </g>
        <g class="cls-36">
          <text class="cls-21" transform="translate(801.47 167.93) rotate(12.35) scale(.95 1)"><tspan x="0" y="0">3</tspan></text>
        </g>
      </g>
    </g>
  </g>
  <g id="key-4">
    <g id="key-4-2" data-name="key-4">
      <path id="key-outline-4" class="cls-38" d="M929.17,234.84c-18.71-4.1-37.41-8.19-56.12-12.29-8.31-1.82-12.25-7.53-10.49-15.69,8.27-38.08,16.6-76.14,25-114.19,1.73-7.84,7.94-11.32,16.97-9.56,8.33,1.63,16.6,3.58,24.9,5.4,27.98,6.13,55.95,12.25,83.93,18.38,12.41,2.72,15.7,7.93,12.96,20.42-7.91,36.11-15.8,72.22-23.72,108.33-2.18,9.94-7.83,13.54-17.81,11.36-18.54-4.03-37.09-8.1-55.63-12.16h0Z"/>
      <path id="key-inline-4" class="cls-37" d="M888.06,145.47c3.1-14.14,6.17-28.29,9.3-42.43,1.7-7.68,6.74-10.84,14.64-9.12,28.85,6.29,57.68,12.63,86.53,18.95,9,1.97,13.05,8.02,11.1,17.04-4.82,22.46-9.8,44.88-14.71,67.32-1,4.55-1.96,9.11-3,13.65-1.9,8.29-8.87,13.07-17.48,11.24-28.38-6.04-56.71-12.24-85.02-18.61-8.56-1.92-12.27-8.26-10.45-16.57,3.03-13.82,6.05-27.65,9.08-41.47Z"/>
      <rect class="cls-39" x="905.1" y="135.35" width="75.65" height="58.92" transform="translate(580.25 1050.67) rotate(-77.65)"/>
      <g id="key-text-4" class="cls-36">
        <g class="cls-36">
          <text class="cls-16" transform="translate(973.49 145.65) rotate(12.35) scale(.97 1)"><tspan x="0" y="0">$</tspan></text>
        </g>
        <g class="cls-36">
          <text class="cls-35" transform="translate(951.24 202.24) rotate(12.35)"><tspan x="0" y="0">4</tspan></text>
        </g>
      </g>
    </g>
  </g>
  <g id="key-5">
    <g id="key-5-2" data-name="key-5">
      <path id="key-outline-5" class="cls-38" d="M1077.13,266.22c-18.71-4.1-37.41-8.19-56.12-12.29-8.31-1.82-12.25-7.53-10.49-15.69,8.27-38.08,16.6-76.14,25-114.19,1.73-7.84,7.94-11.32,16.97-9.56,8.33,1.63,16.6,3.58,24.9,5.4,27.98,6.13,55.95,12.25,83.93,18.38,12.41,2.72,15.7,7.93,12.96,20.42-7.91,36.11-15.8,72.22-23.72,108.33-2.18,9.94-7.83,13.54-17.81,11.36-18.54-4.03-37.09-8.1-55.63-12.16h0Z"/>
      <path id="key-inline-5" class="cls-37" d="M1036.01,176.85c3.1-14.14,6.17-28.29,9.3-42.43,1.7-7.68,6.74-10.84,14.64-9.12,28.85,6.29,57.68,12.63,86.53,18.95,9,1.97,13.05,8.02,11.1,17.04-4.82,22.46-9.8,44.88-14.71,67.32-1,4.55-1.96,9.11-3,13.65-1.9,8.29-8.87,13.07-17.48,11.24-28.38-6.04-56.71-12.24-85.02-18.61-8.56-1.92-12.27-8.26-10.45-16.57,3.03-13.82,6.05-27.65,9.08-41.47Z"/>
      <rect class="cls-39" x="1053.06" y="166.74" width="75.65" height="58.92" transform="translate(665.91 1219.88) rotate(-77.65)"/>
      <g id="key-text-5" class="cls-36">
        <g class="cls-36">
          <text class="cls-4" transform="translate(1112.68 174.23) rotate(12.35) scale(.93 1)"><tspan x="0" y="0">%</tspan></text>
        </g>
        <g class="cls-36">
          <text id="_5" data-name="5" class="cls-1" transform="translate(1095.45 236.29) rotate(12.35) scale(.93 1)"><tspan x="0" y="0">5</tspan></text>
        </g>
      </g>
    </g>
  </g>
  <g id="key-6">
    <g id="key-6-2" data-name="key-6">
      <path id="key-outline-6" class="cls-38" d="M1225.09,297.81c-18.71-4.1-37.41-8.19-56.12-12.29-8.31-1.82-12.25-7.53-10.49-15.69,8.27-38.08,16.6-76.14,25-114.19,1.73-7.84,7.94-11.32,16.97-9.56,8.33,1.63,16.6,3.58,24.9,5.4,27.98,6.13,55.95,12.25,83.93,18.38,12.41,2.72,15.7,7.93,12.96,20.42-7.91,36.11-15.8,72.22-23.72,108.33-2.18,9.94-7.83,13.54-17.81,11.36-18.54-4.03-37.09-8.1-55.63-12.16h0Z"/>
      <path id="key-inline-6" class="cls-37" d="M1183.97,208.44c3.1-14.14,6.17-28.29,9.3-42.43,1.7-7.68,6.74-10.84,14.64-9.12,28.85,6.29,57.68,12.63,86.53,18.95,9,1.97,13.05,8.02,11.1,17.04-4.82,22.46-9.8,44.88-14.71,67.32-1,4.55-1.96,9.11-3,13.65-1.9,8.29-8.87,13.07-17.48,11.24-28.38-6.04-56.71-12.24-85.02-18.61-8.56-1.92-12.27-8.26-10.45-16.57,3.03-13.82,6.05-27.65,9.08-41.47Z"/>
      <rect class="cls-39" x="1201.02" y="198.33" width="75.65" height="58.92" transform="translate(751.36 1389.25) rotate(-77.65)"/>
      <g id="key-text-6" class="cls-36">
        <g class="cls-36">
          <text class="cls-9" transform="translate(1250.92 222.5) rotate(12.35) scale(1.08 1)"><tspan x="0" y="0">^</tspan></text>
        </g>
        <g class="cls-36">
          <text id="_6" data-name="6" class="cls-26" transform="translate(1238.24 265.98) rotate(12.35) scale(.91 1)"><tspan x="0" y="0">6</tspan></text>
        </g>
      </g>
    </g>
  </g>
  <g id="key-7">
    <g id="key-7-2" data-name="key-7">
      <path id="key-outline-7" class="cls-38" d="M1500.99,287.06c-18.77,3.81-37.53,7.62-56.3,11.44-8.34,1.69-14.25-1.93-15.93-10.11-7.83-38.18-15.58-76.36-23.27-114.56-1.59-7.87,2.68-13.57,11.66-15.6,8.28-1.88,16.63-3.43,24.96-5.12,28.07-5.7,56.13-11.4,84.2-17.1,12.45-2.53,17.56.91,20.11,13.44,7.36,36.23,14.73,72.45,22.07,108.68,2.03,9.98-1.69,15.55-11.7,17.59-18.58,3.81-37.2,7.58-55.8,11.35h0Z"/>
      <path id="key-inline-7" class="cls-37" d="M1427.27,221.92c-2.88-14.19-5.78-28.38-8.64-42.57-1.55-7.72,1.79-12.64,9.71-14.26,28.93-5.91,57.87-11.75,86.81-17.63,9.03-1.83,15.17,2.06,17.04,11.1,4.66,22.49,9.17,45.01,13.75,67.53.93,4.57,1.88,9.13,2.77,13.7,1.61,8.35-2.83,15.54-11.45,17.35-28.4,5.94-56.83,11.72-85.29,17.32-8.6,1.7-14.56-2.59-16.25-10.93-2.82-13.87-5.63-27.73-8.45-41.6Z"/>
      <rect class="cls-39" x="1455.82" y="179.62" width="58.92" height="75.65" transform="translate(-13.56 299.99) rotate(-11.48)"/>
      <g id="key-text-7" class="cls-36">
        <g class="cls-36">
          <text class="cls-24" transform="translate(1495.16 196.9) rotate(-11.48) scale(1.04 1)"><tspan x="0" y="0">&amp;</tspan></text>
        </g>
        <g class="cls-36">
          <text id="_7" data-name="7" class="cls-26" transform="translate(1504.85 254.27) rotate(-11.48) scale(.91 1)"><tspan x="0" y="0">7</tspan></text>
        </g>
      </g>
    </g>
  </g>
  <g id="key-8">
    <g id="key-8-2" data-name="key-8">
      <path id="key-outline-8" class="cls-38" d="M1650.09,254.92c-18.77,3.81-37.53,7.62-56.3,11.44-8.34,1.69-14.25-1.93-15.93-10.11-7.83-38.18-15.58-76.36-23.27-114.56-1.59-7.87,2.68-13.57,11.66-15.6,8.28-1.88,16.63-3.43,24.96-5.12,28.07-5.7,56.13-11.4,84.2-17.1,12.45-2.53,17.56.91,20.11,13.44,7.36,36.23,14.73,72.45,22.07,108.68,2.03,9.98-1.69,15.55-11.7,17.59-18.58,3.81-37.2,7.58-55.8,11.35h0Z"/>
      <path id="key-inline-8" class="cls-37" d="M1576.37,189.78c-2.88-14.19-5.78-28.38-8.64-42.57-1.55-7.72,1.79-12.64,9.71-14.26,28.93-5.91,57.87-11.75,86.81-17.63,9.03-1.83,15.17,2.06,17.04,11.1,4.66,22.49,9.17,45.01,13.75,67.53.93,4.57,1.88,9.13,2.77,13.7,1.61,8.35-2.83,15.54-11.45,17.35-28.4,5.94-56.83,11.72-85.29,17.32-8.6,1.7-14.56-2.59-16.25-10.93-2.82-13.87-5.63-27.73-8.45-41.6Z"/>
      <rect class="cls-39" x="1604.92" y="147.49" width="58.92" height="75.65" transform="translate(-4.18 329.03) rotate(-11.48)"/>
      <g id="key-text-8" class="cls-36">
        <g class="cls-36">
          <text class="cls-30" transform="translate(1648.78 174.52) rotate(-11.48) scale(1.06 1)"><tspan x="0" y="0">*</tspan></text>
        </g>
        <g class="cls-36">
          <text id="_8" data-name="8" class="cls-26" transform="translate(1653.96 222.13) rotate(-11.48) scale(.91 1)"><tspan x="0" y="0">8</tspan></text>
        </g>
      </g>
    </g>
  </g>
  <g id="key-9">
    <g id="key-9-2" data-name="key-9">
      <path id="key-outline-9" class="cls-38" d="M1798.61,222.94c-18.77,3.81-37.53,7.62-56.3,11.44-8.34,1.69-14.25-1.93-15.93-10.11-7.83-38.18-15.58-76.36-23.27-114.56-1.59-7.87,2.68-13.57,11.66-15.6,8.28-1.88,16.63-3.43,24.96-5.12,28.07-5.7,56.13-11.4,84.2-17.1,12.45-2.53,17.56.91,20.11,13.44,7.36,36.23,14.73,72.45,22.07,108.68,2.03,9.98-1.69,15.55-11.7,17.59-18.58,3.81-37.2,7.58-55.8,11.35h0Z"/>
      <path id="key-inline-9" class="cls-37" d="M1724.89,157.8c-2.88-14.19-5.78-28.38-8.64-42.57-1.55-7.72,1.79-12.64,9.71-14.26,28.93-5.91,57.87-11.75,86.81-17.63,9.03-1.83,15.17,2.06,17.04,11.1,4.66,22.49,9.17,45.01,13.75,67.53.93,4.57,1.88,9.13,2.77,13.7,1.61,8.35-2.83,15.54-11.45,17.35-28.4,5.94-56.83,11.72-85.29,17.32-8.6,1.7-14.56-2.59-16.25-10.93-2.82-13.87-5.63-27.73-8.45-41.6Z"/>
      <rect class="cls-39" x="1753.44" y="115.51" width="58.92" height="75.65" transform="translate(5.16 357.95) rotate(-11.48)"/>
      <g id="key-text-9" class="cls-36">
        <g class="cls-36">
          <text class="cls-24" transform="translate(1798.36 126.92) rotate(-11.48) scale(1.04 1)"><tspan x="0" y="0">(</tspan></text>
        </g>
        <g class="cls-36">
          <text id="_9" data-name="9" class="cls-26" transform="translate(1802.48 190.16) rotate(-11.48) scale(.91 1)"><tspan x="0" y="0">9</tspan></text>
        </g>
      </g>
    </g>
  </g>
  <g id="key-0">
    <g id="key-0-2" data-name="key-0">
      <path id="key-outline-0" class="cls-38" d="M1946.96,191.56c-18.77,3.81-37.53,7.62-56.3,11.44-8.34,1.69-14.25-1.93-15.93-10.11-7.83-38.18-15.58-76.36-23.27-114.56-1.59-7.87,2.68-13.57,11.66-15.6,8.28-1.88,16.63-3.43,24.96-5.12,28.07-5.7,56.13-11.4,84.2-17.1,12.45-2.53,17.56.91,20.11,13.44,7.36,36.23,14.73,72.45,22.07,108.68,2.03,9.98-1.69,15.55-11.7,17.59-18.58,3.81-37.2,7.58-55.8,11.35h0Z"/>
      <path id="key-inline-0" class="cls-37" d="M1873.24,126.42c-2.88-14.19-5.78-28.38-8.64-42.57-1.55-7.72,1.79-12.64,9.71-14.26,28.93-5.91,57.87-11.75,86.81-17.63,9.03-1.83,15.17,2.06,17.04,11.1,4.66,22.49,9.17,45.01,13.75,67.53.93,4.57,1.88,9.13,2.77,13.7,1.61,8.35-2.83,15.54-11.45,17.35-28.4,5.94-56.83,11.72-85.29,17.32-8.6,1.7-14.56-2.59-16.25-10.93-2.82-13.87-5.63-27.73-8.45-41.6Z"/>
      <rect class="cls-39" x="1901.79" y="84.13" width="58.92" height="75.65" transform="translate(14.37 386.85) rotate(-11.48)"/>
      <g id="key-text-0" class="cls-36">
        <g class="cls-36">
          <text class="cls-24" transform="translate(1946.7 95.54) rotate(-11.48) scale(1.04 1)"><tspan x="0" y="0">)</tspan></text>
        </g>
        <g class="cls-36">
          <text id="_0" data-name="0" class="cls-26" transform="translate(1950.83 158.77) rotate(-11.48) scale(.91 1)"><tspan x="0" y="0">0</tspan></text>
        </g>
      </g>
    </g>
  </g>
  <g id="key-_">
    <g id="key-_-2" data-name="key-_">
      <path id="key-outline-_" class="cls-38" d="M2085.96,164.57c-19.15-.11-38.3-.23-57.45-.34-8.51-.05-13.55-4.81-13.52-13.16.16-38.97.39-77.93.69-116.9.06-8.03,5.41-12.73,14.61-12.88,8.49-.14,16.98.05,25.48.1,28.64.17,57.28.34,85.92.51,12.7.07,17,4.49,16.93,17.27-.22,36.97-.43,73.93-.65,110.9-.06,10.18-4.84,14.87-15.06,14.82-18.97-.08-37.96-.2-56.94-.32h0Z"/>
      <path id="key-inline-_" class="cls-37" d="M2027.15,85.71c.09-14.48.15-28.96.27-43.44.07-7.87,4.34-12,12.42-11.97,29.53.14,59.05.35,88.58.52,9.21.05,14.43,5.13,14.41,14.36-.05,22.97-.24,45.94-.38,68.91-.03,4.66-.02,9.32-.09,13.98-.13,8.5-5.96,14.63-14.76,14.63-29.01,0-58.02-.17-87.03-.51-8.77-.1-13.72-5.52-13.67-14.03.08-14.15.17-28.3.25-42.45Z"/>
      <rect class="cls-39" x="2047.02" y="63.75" width="75.65" height="58.92" transform="translate(1979.33 2177.47) rotate(-89.66)"/>
      <g id="key-text-_" class="cls-36">
        <g class="cls-36">
          <text class="cls-24" transform="translate(2105.38 70.52) rotate(.34) scale(1.04 1)"><tspan x="0" y="0">_</tspan></text>
        </g>
        <g class="cls-36">
          <text id="_" class="cls-26" transform="translate(2102.73 133.27) rotate(.34) scale(.91 1)"><tspan x="0" y="0">-</tspan></text>
        </g>
      </g>
    </g>
  </g>
  <g id="key-_-3" data-name="key-[">
    <g id="key-_-4" data-name="key-[">
      <path id="key-outline-_-2" data-name="key-outline-[" class="cls-38" d="M2208.66,338.27c-19.15-.11-38.3-.23-57.45-.34-8.51-.05-13.55-4.81-13.52-13.16.16-38.97.39-77.93.69-116.9.06-8.03,5.41-12.73,14.61-12.88,8.49-.14,16.98.05,25.48.1,28.64.17,57.28.34,85.92.51,12.7.07,17,4.49,16.93,17.27-.22,36.97-.43,73.93-.65,110.9-.06,10.18-4.84,14.87-15.06,14.82-18.97-.08-37.96-.2-56.94-.32h0Z"/>
      <path id="key-inline-_-2" data-name="key-inline-[" class="cls-37" d="M2149.85,259.42c.09-14.48.15-28.96.27-43.44.07-7.87,4.34-12,12.42-11.97,29.53.14,59.05.35,88.58.52,9.21.05,14.43,5.13,14.41,14.36-.05,22.97-.24,45.94-.38,68.91-.03,4.66-.02,9.32-.09,13.98-.13,8.5-5.96,14.63-14.76,14.63-29.01,0-58.02-.17-87.03-.51-8.77-.1-13.72-5.52-13.67-14.03.08-14.15.17-28.3.25-42.45Z"/>
      <rect class="cls-39" x="2169.72" y="237.46" width="75.65" height="58.92" transform="translate(1927.6 2472.85) rotate(-89.66)"/>
      <g id="key-text-_-2" data-name="key-text-[" class="cls-36">
        <g class="cls-36">
          <text class="cls-34" transform="translate(2234.26 243.09) rotate(.34) scale(1.08 1)"><tspan x="0" y="0">{</tspan></text>
        </g>
        <g class="cls-36">
          <text id="_-2" data-name="[" class="cls-19" transform="translate(2235.17 300.49) rotate(.34) scale(.85 1)"><tspan x="0" y="0">[</tspan></text>
        </g>
      </g>
    </g>
  </g>
  <g id="key-right">
    <g id="key-right-2" data-name="key-right">
      <path id="key-outline-right" class="cls-38" d="M2541.09,794.48c-19.15-.11-38.3-.23-57.45-.34-8.51-.05-13.55-4.81-13.52-13.16.16-38.97.39-77.93.69-116.9.06-8.03,5.41-12.73,14.61-12.88,8.49-.14,16.98.05,25.48.1,28.64.17,57.28.34,85.92.51,12.7.07,17,4.49,16.93,17.27-.22,36.97-.43,73.93-.65,110.9-.06,10.18-4.84,14.87-15.06,14.82-18.97-.08-37.96-.2-56.94-.32h0Z"/>
      <path id="key-inline-right" class="cls-37" d="M2482.28,715.62c.09-14.48.15-28.96.27-43.44.07-7.87,4.34-12,12.42-11.97,29.53.14,59.05.35,88.58.52,9.21.05,14.43,5.13,14.41,14.36-.05,22.97-.24,45.94-.38,68.91-.03,4.66-.02,9.32-.09,13.98-.13,8.5-5.96,14.63-14.76,14.63-29.01,0-58.02-.17-87.03-.51-8.77-.1-13.72-5.52-13.67-14.03.08-14.15.17-28.3.25-42.45Z"/>
      <rect class="cls-39" x="2502.15" y="693.67" width="75.65" height="58.92" transform="translate(1801.87 3258.79) rotate(-89.66)"/>
      <g id="key-text-right" class="cls-36">
        <g class="cls-36">
          <text class="cls-12" transform="translate(2522.86 737.47) rotate(.34) scale(.92 1)"><tspan x="0" y="0">&gt;</tspan></text>
        </g>
      </g>
    </g>
  </g>
  <g id="key-left">
    <g id="key-left-2" data-name="key-left">
      <path id="key-outline-left" class="cls-38" d="M2233.43,794.48c-19.15-.11-38.3-.23-57.45-.34-8.51-.05-13.55-4.81-13.52-13.16.16-38.97.39-77.93.69-116.9.06-8.03,5.41-12.73,14.61-12.88,8.49-.14,16.98.05,25.48.1,28.64.17,57.28.34,85.92.51,12.7.07,17,4.49,16.93,17.27-.22,36.97-.43,73.93-.65,110.9-.06,10.18-4.84,14.87-15.06,14.82-18.97-.08-37.96-.2-56.94-.32h0Z"/>
      <path id="key-inline-left" class="cls-37" d="M2174.62,715.62c.09-14.48.15-28.96.27-43.44.07-7.87,4.34-12,12.42-11.97,29.53.14,59.05.35,88.58.52,9.21.05,14.43,5.13,14.41,14.36-.05,22.97-.24,45.94-.38,68.91-.03,4.66-.02,9.32-.09,13.98-.13,8.5-5.96,14.63-14.76,14.63-29.01,0-58.02-.17-87.03-.51-8.77-.1-13.72-5.52-13.67-14.03.08-14.15.17-28.3.25-42.45Z"/>
      <rect class="cls-39" x="2194.49" y="693.67" width="75.65" height="58.92" transform="translate(1496.03 2951.14) rotate(-89.66)"/>
      <g id="key-text-left" class="cls-36">
        <g class="cls-36">
          <text class="cls-12" transform="translate(2202.63 737.47) rotate(.34) scale(.92 1)"><tspan x="0" y="0">&lt;</tspan></text>
        </g>
      </g>
    </g>
  </g>
  <g id="key-down">
    <g id="key-down-2" data-name="key-down">
      <path id="key-outline-down" class="cls-38" d="M2387.26,794.63c-19.15-.11-38.3-.23-57.45-.34-8.51-.05-13.55-4.81-13.52-13.16.16-38.97.39-77.93.69-116.9.06-8.03,5.41-12.73,14.61-12.88,8.49-.14,16.98.05,25.48.1,28.64.17,57.28.34,85.92.51,12.7.07,17,4.49,16.93,17.27-.22,36.97-.43,73.93-.65,110.9-.06,10.18-4.84,14.87-15.06,14.82-18.97-.08-37.96-.2-56.94-.32h0Z"/>
      <path id="key-inline-down" class="cls-37" d="M2328.45,715.77c.09-14.48.15-28.96.27-43.44.07-7.87,4.34-12,12.42-11.97,29.53.14,59.05.35,88.58.52,9.21.05,14.43,5.13,14.41,14.36-.05,22.97-.24,45.94-.38,68.91-.03,4.66-.02,9.32-.09,13.98-.13,8.5-5.96,14.63-14.76,14.63-29.01,0-58.02-.17-87.03-.51-8.77-.1-13.72-5.52-13.67-14.03.08-14.15.17-28.3.25-42.45Z"/>
      <rect class="cls-39" x="2348.32" y="693.82" width="75.65" height="58.92" transform="translate(1648.8 3105.12) rotate(-89.66)"/>
      <g id="key-text-down" class="cls-36">
        <g class="cls-36">
          <text class="cls-8" transform="translate(2412.7 734.69) rotate(-89.66) scale(.96 1)"><tspan x="0" y="0">&lt;</tspan></text>
        </g>
      </g>
    </g>
  </g>
  <g id="key-up">
    <g id="key-up-2" data-name="key-up">
      <path id="key-outline-up" class="cls-38" d="M2387.26,642.1c-19.15-.11-38.3-.23-57.45-.34-8.51-.05-13.55-4.81-13.52-13.16.16-38.97.39-77.93.69-116.9.06-8.03,5.41-12.73,14.61-12.88,8.49-.14,16.98.05,25.48.1,28.64.17,57.28.34,85.92.51,12.7.07,17,4.49,16.93,17.27-.22,36.97-.43,73.93-.65,110.9-.06,10.18-4.84,14.87-15.06,14.82-18.97-.08-37.96-.2-56.94-.32h0Z"/>
      <path id="key-inline-up" class="cls-37" d="M2328.45,563.24c.09-14.48.15-28.96.27-43.44.07-7.87,4.34-12,12.42-11.97,29.53.14,59.05.35,88.58.52,9.21.05,14.43,5.13,14.41,14.36-.05,22.97-.24,45.94-.38,68.91-.03,4.66-.02,9.32-.09,13.98-.13,8.5-5.96,14.63-14.76,14.63-29.01,0-58.02-.17-87.03-.51-8.77-.1-13.72-5.52-13.67-14.03.08-14.15.17-28.3.25-42.45Z"/>
      <rect class="cls-39" x="2348.32" y="541.28" width="75.65" height="58.92" transform="translate(1801.33 2953.48) rotate(-89.66)"/>
      <g id="key-text-up" class="cls-36">
        <g class="cls-36">
          <text class="cls-8" transform="translate(2360.91 529.76) rotate(90.34) scale(.96 1)"><tspan x="0" y="0">&lt;</tspan></text>
        </g>
      </g>
    </g>
  </g>
  <g id="key-lesc">
    <path id="key-inline-lesc" class="cls-37" d="M88.55,61.47c0-15.33-.02-30.65.01-45.98.02-8.33,4.38-12.73,12.68-12.74,30.31-.03,60.62-.02,90.93-.01,9.45,0,14.84,5.33,14.88,15.1.09,24.31.03,48.62.03,72.93,0,4.93.04,9.86,0,14.8-.08,8.99-6.02,15.52-15.06,15.57-29.78.18-59.56.18-89.34,0-9-.05-14.11-5.75-14.12-14.76-.01-14.97,0-29.95,0-44.92h-.01Z"/>
    <path id="key-outline-lesc" class="cls-38" d="M77.82,71.22c0-19.32-.02-38.64.01-57.96C77.84,4.54,82.33.02,91.03.02,129.5,0,167.98,0,206.45.02c9.09,0,13.36,4.34,13.37,13.53v115.92c0,8.49-4.75,13.5-13.17,13.51-38.47.06-76.95.06-115.42,0-8.72,0-13.4-4.93-13.4-13.79-.02-19.33-.01-38.65-.01-57.97h0ZM91.82,61.5c0,14.15-.01,28.31,0,42.46.01,8.52,4.83,13.91,13.34,13.95,28.14.16,56.28.17,84.42,0,8.54-.05,14.15-6.22,14.23-14.72.04-4.66,0-9.32,0-13.99,0-22.98.05-45.96-.03-68.93-.04-9.23-5.14-14.27-14.06-14.27-28.64-.01-57.28-.02-85.92.01-7.84.01-11.96,4.17-11.98,12.04-.03,14.49-.01,28.97-.01,43.46h.01Z"/>
    <rect class="cls-39" x="119.16" y="48.29" width="58.92" height="29.87"/>
    <g id="key-text-lesc" class="cls-36">
      <g class="cls-36">
        <text class="cls-20" transform="translate(91.8 84)"><tspan x="0" y="0">E</tspan></text>
      </g>
      <g class="cls-36">
        <text class="cls-31" transform="translate(134.47 84)"><tspan x="0" y="0">s</tspan></text>
      </g>
      <g class="cls-36">
        <text class="cls-18" transform="translate(165.63 84)"><tspan x="0" y="0">c</tspan></text>
      </g>
    </g>
  </g>
  <g id="key-pageup">
    <path id="key-inline-pageup" class="cls-37" d="M108.32,154.6c9.56-.03,19.17,0,28.85.09,2.01.02,4.03.04,6.04.07,2.23.03,4.46.06,6.7.1,2.18.03,4.36.07,6.54.11.55.1,1.16.24,1.81.45.83.27,1.56.58,2.16.89.29.09.62.22.97.41.73.41,1.23.92,1.53,1.29.35.31.73.69,1.1,1.13.58.68,1.01,1.35,1.32,1.93.28.5.55,1.09.81,1.74.43,1.11.67,2.13.8,2.98.12.4.23.87.3,1.39.13.94.1,1.76.02,2.4.68,26.34.76,53.15.15,80.41-.06,2.66-.12,5.32-.2,7.97.02.6,0,1.4-.21,2.32-.2.92-.5,1.67-.77,2.22-.19.53-.43,1.11-.75,1.73-.41.79-.84,1.46-1.25,2.01-.66.78-1.31,1.55-1.97,2.33-.88.55-1.77,1.1-2.65,1.65l-4.07,1.88-92.21-.13-4.23-.5-3.16-1.2-2.37-1.67-1.92-2.26-1.5-3.16-.88-2.76v-94.78l.83-3.83,1.64-3.09,2.61-2.3,2.33-1.04,3.07-.63,35.75-.13,12.81-.02h0Z"/>
    <path id="key-outline-pageup" class="cls-38" d="M36.69,222.24c0-19.32-.02-38.64,0-57.96,0-8.73,4.61-13.25,13.51-13.25,39.37-.02,78.74-.02,118.11,0,9.3,0,13.67,4.34,13.68,13.53v115.92c0,8.49-4.86,13.5-13.48,13.51-39.37.06-78.74.06-118.11.01-8.93-.01-13.71-4.93-13.71-13.79-.02-19.33,0-38.65,0-57.97h0ZM51.02,212.52c0,14.15-.01,28.31,0,42.46.01,8.52,4.94,13.91,13.65,13.95,28.79.16,57.59.17,86.38-.01,8.74-.05,14.48-6.22,14.56-14.72.04-4.66,0-9.32,0-13.99,0-22.98.06-45.96-.03-68.93-.03-9.24-5.25-14.27-14.38-14.28-29.3,0-58.61-.02-87.91,0-8.02,0-12.24,4.17-12.26,12.04-.04,14.5-.02,28.99-.02,43.47h.01Z"/>
    <rect class="cls-39" x="65" y="181.03" width="88.7" height="82.96"/>
    <g id="key-text-pageup" class="cls-36">
      <g class="cls-36">
        <text class="cls-17" transform="translate(55.13 206.36) scale(.94 1)"><tspan x="0" y="0">Page</tspan></text>
      </g>
      <g class="cls-36">
        <text class="cls-23" transform="translate(54.68 254.04)"><tspan x="0" y="0">Up</tspan></text>
      </g>
    </g>
  </g>
  <g id="key-pagedown">
    <path id="key-inline-pagedown" class="cls-37" d="M71.46,303.92c9.77-.03,19.6,0,29.48.1,2.06.02,4.12.04,6.18.07,2.28.03,4.56.06,6.85.1,2.23.04,4.46.07,6.68.12.56.1,1.18.25,1.85.46.85.27,1.59.59,2.21.91.29.09.63.22,1,.42.75.42,1.26.94,1.56,1.33.36.32.74.71,1.13,1.16.59.7,1.03,1.39,1.35,1.98.28.52.57,1.11.83,1.78.44,1.13.68,2.18.82,3.05.12.41.23.89.31,1.42.13.96.1,1.8.03,2.46.7,26.99.77,54.46.15,82.39-.06,2.73-.13,5.45-.2,8.16.02.62,0,1.44-.21,2.37-.2.95-.51,1.71-.78,2.27-.19.54-.44,1.14-.77,1.77-.42.81-.86,1.5-1.27,2.06-.67.79-1.34,1.59-2.02,2.38-.9.56-1.81,1.13-2.71,1.69l-4.16,1.93-94.24-.13-4.32-.52-3.23-1.23-2.42-1.71-1.97-2.32-1.54-3.24-.9-2.83v-97.11l.85-3.92,1.68-3.17,2.67-2.36,2.38-1.07,3.14-.65,36.54-.13h13.05Z"/>
    <path id="key-outline-pagedown" class="cls-38" d="M0,373.26c0-19.32-.02-38.64.01-57.96.01-8.73,4.61-13.25,13.51-13.25,39.37-.02,78.74-.02,118.11,0,9.3,0,13.67,4.34,13.68,13.53v115.92c0,8.49-4.86,13.5-13.48,13.51-39.37.06-78.74.06-118.11.01-8.93-.01-13.71-4.93-13.71-13.79-.02-19.33-.01-38.65-.01-57.97h0ZM14.33,363.54v42.46c0,8.52,4.94,13.91,13.65,13.95,28.79.16,57.59.17,86.38-.01,8.74-.05,14.48-6.22,14.56-14.72.04-4.66,0-9.32,0-13.99,0-22.98.06-45.96-.03-68.93-.03-9.24-5.25-14.27-14.38-14.28-29.3-.01-58.61-.02-87.91.01-8.02.01-12.24,4.17-12.26,12.04-.04,14.5,0,28.99-.02,43.47h.01Z"/>
    <rect class="cls-39" x="23.53" y="326.98" width="96.21" height="82.96"/>
    <g id="key-text-pagedown" class="cls-36">
      <g class="cls-36">
        <text class="cls-14" transform="translate(18.45 355.81)"><tspan x="0" y="0">Page</tspan></text>
      </g>
      <g class="cls-36">
        <text class="cls-5" transform="translate(17.67 403.5)"><tspan x="0" y="0">Down</tspan></text>
      </g>
    </g>
  </g>
  <g id="key-lgui">
    <g id="key-lgui-2" data-name="key-lgui">
      <path id="key-outline-lgui" class="cls-38" d="M781.75,824.61c-24.13-5.28-48.25-10.55-72.38-15.85-10.73-2.36-16.08-8.46-14.28-16.77,8.41-38.82,16.91-77.63,25.49-116.41,1.77-8,9.5-11.24,21.13-8.91,10.74,2.16,21.41,4.64,32.11,6.98,36.09,7.9,72.16,15.8,108.25,23.7,16,3.5,20.5,9.07,17.71,21.8-8.06,36.82-16.11,73.63-24.18,110.44-2.22,10.14-9.24,13.53-22.11,10.72-23.91-5.24-47.82-10.47-71.74-15.71h0Z"/>
      <path id="key-inline-lgui" class="cls-37" d="M720.12,729.41c3.14-14.32,6.24-28.66,9.43-42.97,1.73-7.78,8.47-10.61,19.57-8.19,40.55,8.85,81.09,17.73,121.63,26.63,12.64,2.77,18.76,9.33,16.81,18.47-4.86,22.75-9.91,45.45-14.88,68.17-1.01,4.61-1.97,9.23-3.04,13.83-1.95,8.38-11.23,12.74-23.33,10.14-39.87-8.55-79.71-17.28-119.51-26.16-12.03-2.69-17.7-9.5-15.86-17.93,3.05-14,6.13-28,9.19-42h0Z"/>
      <rect class="cls-39" x="786.26" y="717.53" width="29.87" height="57.6" transform="translate(-99.23 1369.36) rotate(-77.65)"/>
      <g id="key-text-lgui" class="cls-36">
        <text class="cls-27" transform="translate(730.33 746.33) rotate(12.35) scale(.84 1)"><tspan x="0" y="0">L</tspan></text>
        <text class="cls-32" transform="translate(762.03 754.69) rotate(12.35) scale(.97 1)"><tspan x="0" y="0">Gui</tspan></text>
      </g>
    </g>
  </g>
  <g id="Layer_21" data-name="Layer 21">
    <g id="key-code">
      <path id="key-outline-code" class="cls-38" d="M1946.4,825.15c-25.31,4.71-50.62,9.44-75.94,14.14-11.26,2.09-18.84-1.78-20.42-10.83-7.39-42.22-14.7-84.47-21.93-126.73-1.49-8.71,4.65-15.15,16.77-17.64,11.19-2.29,22.44-4.24,33.66-6.33,37.86-7.05,75.71-14.1,113.57-21.15,16.78-3.13,23.34.57,25.73,14.43,6.93,40.08,13.88,80.15,20.8,120.23,1.91,11.04-3.49,17.32-16.99,19.85-25.09,4.67-50.17,9.35-75.27,14.02h0Z"/>
      <path id="key-inline-code" class="cls-37" d="M1852.1,755.06c-2.59-14.43-5.22-28.86-7.76-43.3-1.38-7.85,3.76-13.05,14.94-15.07,40.85-7.36,81.69-14.69,122.55-22,12.73-2.29,20.9,1.43,22.6,10.62,4.23,22.87,8.26,45.78,12.37,68.67.83,4.65,1.72,9.28,2.49,13.94,1.41,8.48-5.49,16.07-17.66,18.31-40.11,7.38-80.24,14.58-120.41,21.63-12.14,2.13-19.99-2-21.52-10.48-2.55-14.1-5.06-28.21-7.6-42.31h-.01Z"/>
      <rect class="cls-39" x="1904.66" y="724.69" width="57.6" height="29.87" transform="translate(-100.27 353.26) rotate(-10.18)"/>
      <g id="key-text-code" class="cls-36">
        <text/>
        <text class="cls-2" transform="translate(1858.61 773.59) rotate(-10.18) scale(.93 1)"><tspan x="0" y="0">Code</tspan></text>
      </g>
    </g>
  </g>
  <g id="key-lalt">
    <g id="key-lalt-2" data-name="key-lalt">
      <path id="key-outline-lalt" class="cls-38" d="M445.48,791.39c-24.7.03-49.39.06-74.09.08-10.98,0-17.52-4.8-17.55-13.31-.13-39.72-.17-79.45-.13-119.17,0-8.19,6.86-13.02,18.72-13.24,10.95-.2,21.91-.07,32.86-.09,36.94-.04,73.87-.08,110.81-.12,16.38-.02,21.97,4.46,21.99,17.49.04,37.69.09,75.37.12,113.06.01,10.38-6.11,15.2-19.29,15.22-24.48.03-48.96.05-73.44.08h0Z"/>
      <path id="key-inline-lalt" class="cls-37" d="M364.83,711.67c-.02-14.66-.07-29.33-.03-43.99.02-7.97,5.99-12.19,17.35-12.21,41.51-.07,83-.11,124.51-.13,12.94-.01,20.32,5.08,20.38,14.43.14,23.26.09,46.52.12,69.78,0,4.72.06,9.44,0,14.16-.1,8.6-8.23,14.86-20.61,14.92-40.78.22-81.56.26-122.34.14-12.33-.04-19.33-5.48-19.34-14.1-.03-14.33-.03-28.66-.05-42.99h0Z"/>
      <rect class="cls-39" x="418.84" y="695.83" width="57.6" height="29.87" transform="translate(-.76 .48) rotate(-.06)"/>
      <g id="key-text-lalt" class="cls-36">
        <text class="cls-27" transform="translate(378.44 726) rotate(-.06) scale(.84 1)"><tspan x="0" y="0">L</tspan></text>
        <text class="cls-32" transform="translate(413.04 725.67) rotate(-.06) scale(.97 1)"><tspan x="0" y="0">Alt</tspan></text>
      </g>
    </g>
  </g>
  <g id="key-fn">
    <g id="key-fn-2" data-name="key-fn">
      <path id="key-outline-fn" class="cls-38" d="M253.47,791.39c-24.7.03-49.39.06-74.09.08-10.98,0-17.52-4.8-17.55-13.31-.13-39.72-.17-79.45-.13-119.17,0-8.19,6.86-13.02,18.72-13.24,10.95-.2,21.91-.07,32.86-.09,36.94-.04,73.87-.08,110.81-.12,16.38-.02,21.97,4.46,21.99,17.49.04,37.69.09,75.37.12,113.06.01,10.38-6.11,15.2-19.29,15.22-24.48.03-48.96.05-73.44.08h0Z"/>
      <path id="key-inline-fn" class="cls-37" d="M172.82,711.67c-.02-14.66-.07-29.33-.03-43.99.02-7.97,5.99-12.19,17.35-12.21,41.51-.07,83-.11,124.51-.13,12.94-.01,20.32,5.08,20.38,14.43.14,23.26.09,46.52.12,69.78,0,4.72.06,9.44,0,14.16-.1,8.6-8.23,14.86-20.61,14.92-40.78.22-81.56.26-122.34.14-12.33-.04-19.33-5.48-19.34-14.1-.03-14.33-.03-28.66-.05-42.99h0Z"/>
      <rect class="cls-39" x="226.83" y="695.83" width="57.6" height="29.87" transform="translate(-.76 .28) rotate(-.06)"/>
      <g id="key-text-fn" class="cls-36">
        <text class="cls-32" transform="translate(213.31 725.67) rotate(-.06) scale(.97 1)"><tspan x="0" y="0">Fn</tspan></text>
      </g>
    </g>
  </g>
  <g id="key-bksp">
    <g id="key-bksp-2" data-name="key-bksp">
      <path id="key-outline-bksp" class="cls-38" d="M2485.28,188.48c-44.59,0-89.17.01-133.76,0-19.82-.01-31.62-4.82-31.66-13.33-.15-39.72-.15-79.45,0-119.17.03-8.19,12.41-13.01,33.83-13.22,19.76-.19,39.54-.05,59.32-.05,66.69,0,133.37-.01,200.06,0,29.57.01,39.66,4.48,39.66,17.51,0,37.69.02,75.37-.01,113.06-.01,10.38-11.06,15.19-34.85,15.2-44.19.01-88.39,0-132.59,0h0Z"/>
      <path id="key-inline-bksp" class="cls-37" d="M2335.34,107.61c0-14.66-.06-29.33.03-43.99.05-7.97,11.02-12.18,31.9-12.19,76.25-.03,152.5-.02,228.76-.01,23.77,0,37.33,5.1,37.42,14.45.22,23.26.08,46.52.08,69.78,0,4.72.09,9.44-.02,14.16-.2,8.6-15.15,14.85-37.88,14.9-74.92.18-149.84.17-224.76.01-22.65-.05-35.5-5.5-35.51-14.12-.04-14.34-.02-28.67-.02-42.99Z"/>
      <rect class="cls-39" x="2435.33" y="96.13" width="104.11" height="29.87"/>
      <g id="key-text-bksp" class="cls-36">
        <text class="cls-25" transform="translate(2412.9 120.64)"><tspan x="0" y="0" xml:space="preserve">  Bksp</tspan></text>
      </g>
    </g>
  </g>
  <g id="key-enter">
    <g id="key-enter-2" data-name="key-enter">
      <path id="key-outline-enter" class="cls-38" d="M2523.69,494.07c-44.59,0-89.17.01-133.76,0-19.82-.01-31.62-4.82-31.66-13.33-.15-39.72-.15-79.45,0-119.17.03-8.19,12.41-13.01,33.83-13.22,19.76-.19,39.54-.05,59.32-.05,66.69,0,133.37-.01,200.06,0,29.57.01,39.66,4.48,39.66,17.51,0,37.69.02,75.37-.01,113.06-.01,10.38-11.06,15.19-34.85,15.2-44.19.01-88.39,0-132.59,0h0Z"/>
      <path id="key-inline-enter" class="cls-37" d="M2373.75,413.2c0-14.66-.06-29.33.03-43.99.05-7.97,11.02-12.18,31.9-12.19,76.25-.03,152.5-.02,228.76-.01,23.77,0,37.33,5.1,37.42,14.45.22,23.26.08,46.52.08,69.78,0,4.72.09,9.44-.02,14.16-.2,8.6-15.15,14.85-37.88,14.9-74.92.18-149.84.17-224.76.01-22.65-.05-35.5-5.5-35.51-14.12-.04-14.34-.02-28.67-.02-42.99Z"/>
      <rect class="cls-39" x="2473.74" y="401.72" width="104.11" height="29.87"/>
      <g id="key-text-enter" class="cls-36">
        <text class="cls-25" transform="translate(2451.31 426.23)"><tspan x="0" y="0" xml:space="preserve"> Enter</tspan></text>
      </g>
    </g>
  </g>
  <g id="key-rshift">
    <g id="key-rshift-2" data-name="key-rshift">
      <path id="key-outline-rshift" class="cls-38" d="M2597.99,643.5c-34.44,0-68.88.01-103.32,0-15.31-.01-24.42-4.82-24.46-13.33-.12-39.72-.12-79.45,0-119.17.02-8.19,9.59-13.01,26.13-13.22,15.26-.19,30.54-.05,45.82-.05,51.51,0,103.02-.01,154.54,0,22.84.01,30.64,4.48,30.64,17.51,0,37.69.02,75.37,0,113.06,0,10.38-8.54,15.19-26.92,15.2-34.13.01-68.28,0-102.42,0h0Z"/>
      <path id="key-inline-rshift" class="cls-37" d="M2482.17,562.63c0-14.66-.05-29.33.02-43.99.04-7.97,8.51-12.18,24.64-12.19,58.9-.03,117.8-.02,176.71-.01,18.36,0,28.84,5.1,28.91,14.45.17,23.26.06,46.52.06,69.78,0,4.72.07,9.44-.02,14.16-.15,8.6-11.7,14.85-29.26,14.9-57.87.18-115.74.17-173.62.01-17.5-.05-27.42-5.5-27.43-14.12-.03-14.34-.02-28.67-.02-42.99Z"/>
      <rect class="cls-39" x="2559.4" y="551.15" width="80.42" height="29.87"/>
      <g id="key-text-enter-2" data-name="key-text-enter" class="cls-36">
        <text class="cls-15" transform="translate(2522.86 576.35) scale(.99 1)"><tspan x="0" y="0">RShift</tspan></text>
      </g>
    </g>
  </g>
  <g id="key-del">
    <path id="key-outline-del" class="cls-38" d="M1642.93,888.4c-53.66,11.52-107.31,23.04-160.97,34.54-23.86,5.11-38.94,3-40.54-6.11-7.46-42.53-14.73-85.1-21.81-127.72-1.46-8.79,12.56-17.15,38.29-22.91,23.75-5.32,47.58-10.26,71.38-15.37,80.25-17.22,160.5-34.46,240.76-51.67,35.59-7.63,48.55-5.44,50.94,8.52,6.91,40.39,13.82,80.77,20.69,121.17,1.89,11.12-10.53,19.14-39.16,25.3-53.19,11.44-106.39,22.85-159.58,34.26h0Z"/>
    <path id="key-inline-del" class="cls-37" d="M1447.93,842.26c-2.77-16.23-5.62-32.43-8.28-48.69-1.45-8.84,11.12-16.35,36.53-21.83,92.83-19.95,185.65-39.86,278.48-59.77,28.94-6.21,46.41-4.11,48.29,6.21,4.67,25.68,8.89,51.44,13.28,77.19.89,5.23,1.9,10.42,2.64,15.67,1.37,9.57-15.64,20.39-43.3,26.39-91.17,19.76-182.39,39.34-273.63,58.73-27.59,5.86-44.26,3.19-45.9-6.35-2.73-15.83-5.41-31.69-8.12-47.54h0Z"/>
    <polygon class="cls-39" points="1571.11 832.7 1565.74 801.26 1691.05 774.37 1696.42 805.81 1571.11 832.7"/>
    <g id="key-text-del" class="cls-36">
      <text class="cls-29" transform="translate(1530.92 845.89) rotate(-10.4) scale(1.05 1) skewX(.07)"><tspan x="0" y="0">Delete</tspan></text>
    </g>
  </g>
  <g id="key-u">
    <path id="key-outline-u" class="cls-38" d="M1607.58,418.2c-18.76,3.86-37.51,7.74-56.27,11.59-8.35,1.71-14.26-1.89-15.96-10.06-7.93-38.15-15.79-76.31-23.59-114.49-1.61-7.88,2.65-13.58,11.62-15.63,8.27-1.9,16.63-3.47,24.94-5.19,28.05-5.79,56.1-11.57,84.15-17.33,12.44-2.56,17.57.87,20.15,13.38,7.47,36.2,14.93,72.42,22.38,108.62,2.05,9.97-1.65,15.55-11.65,17.62-18.58,3.85-37.17,7.67-55.77,11.5Z"/>
    <path id="key-inline-u" class="cls-37" d="M1535.95,349.72c-2.92-14.19-5.87-28.36-8.76-42.55-1.57-7.72,1.64-12.63,9.33-14.21,28.1-5.82,56.21-11.6,84.33-17.38,8.77-1.8,14.78,2.09,16.68,11.13,4.72,22.48,9.3,44.99,13.93,67.48.94,4.56,1.91,9.12,2.81,13.7,1.64,8.33-2.63,15.51-11,17.3-27.58,5.86-55.21,11.54-82.86,17.08-8.36,1.67-14.18-2.63-15.9-10.97-2.86-13.85-5.71-27.71-8.56-41.57h0Z"/>
    <rect class="cls-39" x="1574.52" y="327.71" width="41.9" height="29.87" transform="translate(-36.32 329.01) rotate(-11.64)"/>
    <g id="key-text-u" class="cls-36">
      <text id="u" class="cls-25" transform="translate(1577.14 357.69) rotate(-11.64)"><tspan x="0" y="0" xml:space="preserve"> U</tspan></text>
    </g>
  </g>
  <g id="key-y">
    <path id="key-outline-y" class="cls-38" d="M1456.71,449.43c-18.76,3.86-37.51,7.74-56.27,11.58-8.35,1.71-14.26-1.9-15.96-10.06-7.92-38.15-15.78-76.31-23.57-114.49-1.61-7.88,2.65-13.58,11.62-15.63,8.27-1.9,16.63-3.47,24.95-5.19,28.05-5.78,56.1-11.56,84.16-17.32,12.44-2.56,17.57.87,20.15,13.39,7.46,36.2,14.91,72.42,22.36,108.62,2.05,9.97-1.65,15.55-11.66,17.62-18.58,3.84-37.18,7.66-55.77,11.49Z"/>
    <path id="key-inline-y" class="cls-37" d="M1385.1,380.93c-2.92-14.19-5.86-28.36-8.75-42.56-1.57-7.72,1.64-12.63,9.33-14.21,28.1-5.81,56.21-11.59,84.33-17.37,8.77-1.8,14.78,2.09,16.67,11.13,4.72,22.48,9.29,44.99,13.92,67.49.94,4.56,1.91,9.12,2.81,13.7,1.64,8.33-2.63,15.51-11,17.29-27.58,5.86-55.21,11.53-82.86,17.06-8.36,1.67-14.18-2.63-15.9-10.97-2.86-13.85-5.71-27.71-8.55-41.57h0Z"/>
    <rect class="cls-39" x="1423.66" y="358.93" width="41.9" height="29.87" transform="translate(-45.71 298.94) rotate(-11.63)"/>
    <g id="key-text-y" class="cls-36">
      <text id="y" class="cls-25" transform="translate(1426.29 388.91) rotate(-11.63)"><tspan x="0" y="0" xml:space="preserve"> Y</tspan></text>
    </g>
  </g>
  <g id="key-i">
    <path id="key-outline-i" class="cls-38" d="M1756.61,386.7c-18.76,3.86-37.51,7.74-56.27,11.59-8.35,1.71-14.26-1.89-15.96-10.06-7.93-38.15-15.79-76.31-23.59-114.49-1.61-7.88,2.65-13.58,11.62-15.63,8.27-1.9,16.63-3.47,24.94-5.19,28.05-5.79,56.1-11.57,84.15-17.33,12.44-2.56,17.57.87,20.15,13.38,7.47,36.2,14.93,72.42,22.38,108.62,2.05,9.97-1.65,15.55-11.65,17.62-18.58,3.85-37.17,7.67-55.77,11.5Z"/>
    <path id="key-inline-i" class="cls-37" d="M1684.99,318.21c-2.92-14.19-5.87-28.36-8.76-42.55-1.57-7.72,1.64-12.63,9.33-14.21,28.1-5.82,56.21-11.6,84.33-17.38,8.77-1.8,14.78,2.09,16.68,11.13,4.72,22.48,9.3,44.99,13.93,67.48.94,4.56,1.91,9.12,2.81,13.7,1.64,8.33-2.63,15.51-11,17.3-27.58,5.86-55.21,11.54-82.86,17.08-8.36,1.67-14.18-2.63-15.9-10.97-2.86-13.85-5.71-27.71-8.56-41.57h0Z"/>
    <rect class="cls-39" x="1723.55" y="296.2" width="41.9" height="29.87" transform="translate(-26.9 358.43) rotate(-11.64)"/>
    <g id="key-text-i" class="cls-36">
      <text id="i" class="cls-25" transform="translate(1720.97 326.18) rotate(-11.64)"><tspan x="0" y="0" xml:space="preserve">   I</tspan></text>
    </g>
  </g>
  <g id="key-o">
    <path id="key-outline-o" class="cls-38" d="M1908.94,355.43c-18.76,3.86-37.51,7.74-56.27,11.59-8.35,1.71-14.26-1.89-15.96-10.06-7.93-38.15-15.79-76.31-23.59-114.49-1.61-7.88,2.65-13.58,11.62-15.63,8.27-1.9,16.63-3.47,24.94-5.19,28.05-5.79,56.1-11.57,84.15-17.33,12.44-2.56,17.57.87,20.15,13.38,7.47,36.2,14.93,72.42,22.38,108.62,2.05,9.97-1.65,15.55-11.65,17.62-18.58,3.85-37.17,7.67-55.77,11.5Z"/>
    <path id="key-inline-o" class="cls-37" d="M1837.32,286.95c-2.92-14.19-5.87-28.36-8.76-42.55-1.57-7.72,1.64-12.63,9.33-14.21,28.1-5.82,56.21-11.6,84.33-17.38,8.77-1.8,14.78,2.09,16.68,11.13,4.72,22.48,9.3,44.99,13.93,67.48.94,4.56,1.91,9.12,2.81,13.7,1.64,8.33-2.63,15.51-11,17.3-27.58,5.86-55.21,11.54-82.86,17.08-8.36,1.67-14.18-2.63-15.9-10.97-2.86-13.85-5.71-27.71-8.56-41.57h0Z"/>
    <rect class="cls-39" x="1875.88" y="264.93" width="41.9" height="29.87" transform="translate(-17.45 388.53) rotate(-11.64)"/>
    <g id="key-text-o" class="cls-36">
      <text id="o" class="cls-25" transform="translate(1873.3 294.92) rotate(-11.64)"><tspan x="0" y="0" xml:space="preserve"> O</tspan></text>
    </g>
  </g>
  <g id="key-p">
    <path id="key-outline-p" class="cls-38" d="M2052.57,334.82c-19.15-.24-38.3-.46-57.45-.71-8.52-.11-13.53-4.9-13.44-13.24.42-38.97.89-77.92,1.44-116.89.11-8.04,5.49-12.7,14.69-12.79,8.49-.08,16.98.17,25.48.26,28.64.35,57.28.7,85.91,1.07,12.7.16,16.98,4.61,16.82,17.38-.45,36.96-.91,73.93-1.37,110.89-.13,10.18-4.94,14.84-15.15,14.72-18.97-.22-37.95-.46-56.94-.69Z"/>
    <path id="key-inline-p" class="cls-37" d="M1997.25,252.61c.18-14.48.33-28.96.54-43.44.11-7.87,4.3-11.98,12.15-11.89,28.7.33,57.39.69,86.09,1.06,8.95.12,13.99,5.2,13.91,14.44-.2,22.97-.54,45.93-.82,68.9-.06,4.66-.08,9.32-.18,13.98-.18,8.49-5.89,14.59-14.44,14.54-28.2-.17-56.4-.53-84.59-1.04-8.53-.15-13.29-5.6-13.19-14.12.17-14.15.35-28.29.53-42.44h0Z"/>
    <rect class="cls-39" x="2041.96" y="237.47" width="29.87" height="41.9" transform="translate(1773.08 2311.97) rotate(-89.29)"/>
    <g id="key-text-p" class="cls-36">
      <text id="p" class="cls-25" transform="translate(2038.52 268.07) rotate(.71)"><tspan x="0" y="0" xml:space="preserve"> P</tspan></text>
    </g>
  </g>
  <g id="key-h">
    <path id="key-outline-h" class="cls-38" d="M1525.5,592.46c-18.76,3.86-37.51,7.74-56.27,11.58-8.35,1.71-14.26-1.9-15.96-10.06-7.92-38.15-15.78-76.31-23.57-114.49-1.61-7.88,2.65-13.58,11.62-15.63,8.27-1.9,16.63-3.47,24.95-5.19,28.05-5.78,56.1-11.56,84.16-17.32,12.44-2.56,17.57.87,20.15,13.39,7.46,36.2,14.91,72.42,22.36,108.62,2.05,9.97-1.65,15.55-11.66,17.62-18.58,3.84-37.18,7.66-55.77,11.49Z"/>
    <path id="key-inline-h" class="cls-37" d="M1453.89,523.97c-2.92-14.19-5.86-28.36-8.75-42.56-1.57-7.72,1.64-12.63,9.33-14.21,28.1-5.81,56.21-11.59,84.33-17.37,8.77-1.8,14.78,2.09,16.67,11.13,4.72,22.48,9.29,44.99,13.92,67.49.94,4.56,1.91,9.12,2.81,13.7,1.64,8.33-2.63,15.51-11,17.29-27.58,5.86-55.21,11.53-82.86,17.06-8.36,1.67-14.18-2.63-15.9-10.97-2.86-13.85-5.71-27.71-8.55-41.57h0Z"/>
    <rect class="cls-39" x="1492.46" y="501.96" width="41.9" height="29.87" transform="translate(-73.14 315.74) rotate(-11.63)"/>
    <g id="key-text-h" class="cls-36">
      <text id="h" class="cls-25" transform="translate(1495.08 531.95) rotate(-11.63)"><tspan x="0" y="0" xml:space="preserve"> H</tspan></text>
    </g>
  </g>
  <g id="key-j">
    <path id="key-outline-j" class="cls-38" d="M1676.53,560.21c-18.76,3.86-37.51,7.74-56.27,11.59-8.35,1.71-14.26-1.89-15.96-10.06-7.93-38.15-15.79-76.31-23.59-114.49-1.61-7.88,2.65-13.58,11.62-15.63,8.27-1.9,16.63-3.47,24.94-5.19,28.05-5.79,56.1-11.57,84.15-17.33,12.44-2.56,17.57.87,20.15,13.38,7.47,36.2,14.93,72.42,22.38,108.62,2.05,9.97-1.65,15.55-11.65,17.62-18.58,3.85-37.17,7.67-55.77,11.5Z"/>
    <path id="key-inline-j" class="cls-37" d="M1604.91,491.72c-2.92-14.19-5.87-28.36-8.76-42.55-1.57-7.72,1.64-12.63,9.33-14.21,28.1-5.82,56.21-11.6,84.33-17.38,8.77-1.8,14.78,2.09,16.68,11.13,4.72,22.48,9.3,44.99,13.93,67.48.94,4.56,1.91,9.12,2.81,13.7,1.64,8.33-2.63,15.51-11,17.3-27.58,5.86-55.21,11.54-82.86,17.08-8.36,1.67-14.18-2.63-15.9-10.97-2.86-13.85-5.71-27.71-8.56-41.57h0Z"/>
    <rect class="cls-39" x="1643.47" y="469.71" width="41.9" height="29.87" transform="translate(-63.56 345.84) rotate(-11.64)"/>
    <g id="key-text-j" class="cls-36">
      <text id="j" class="cls-25" transform="translate(1636.37 499.69) rotate(-11.64)"><tspan x="0" y="0" xml:space="preserve">  J</tspan></text>
    </g>
  </g>
  <g id="key-k">
    <path id="key-outline-k" class="cls-38" d="M1826.88,528.96c-18.76,3.86-37.51,7.74-56.27,11.59-8.35,1.71-14.26-1.89-15.96-10.06-7.93-38.15-15.79-76.31-23.59-114.49-1.61-7.88,2.65-13.58,11.62-15.63,8.27-1.9,16.63-3.47,24.94-5.19,28.05-5.79,56.1-11.57,84.15-17.33,12.44-2.56,17.57.87,20.15,13.38,7.47,36.2,14.93,72.42,22.38,108.62,2.05,9.97-1.65,15.55-11.65,17.62-18.58,3.85-37.17,7.67-55.77,11.5Z"/>
    <path id="key-inline-k" class="cls-37" d="M1755.26,460.48c-2.92-14.19-5.87-28.36-8.76-42.55-1.57-7.72,1.64-12.63,9.33-14.21,28.1-5.82,56.21-11.6,84.33-17.38,8.77-1.8,14.78,2.09,16.68,11.13,4.72,22.48,9.3,44.99,13.93,67.48.94,4.56,1.91,9.12,2.81,13.7,1.64,8.33-2.63,15.51-11,17.3-27.58,5.86-55.21,11.54-82.86,17.08-8.36,1.67-14.18-2.63-15.9-10.97-2.86-13.85-5.71-27.71-8.56-41.57h0Z"/>
    <rect class="cls-39" x="1793.82" y="438.47" width="41.9" height="29.87" transform="translate(-54.16 375.54) rotate(-11.64)"/>
    <g id="key-text-k" class="cls-36">
      <text id="k" class="cls-25" transform="translate(1782.91 468.45) rotate(-11.64)"><tspan x="0" y="0" xml:space="preserve">  K</tspan></text>
    </g>
  </g>
  <g id="key-l">
    <path id="key-outline-l" class="cls-38" d="M1978.55,499.45c-18.76,3.86-37.51,7.74-56.27,11.59-8.35,1.71-14.26-1.89-15.96-10.06-7.93-38.15-15.79-76.31-23.59-114.49-1.61-7.88,2.65-13.58,11.62-15.63,8.27-1.9,16.63-3.47,24.94-5.19,28.05-5.79,56.1-11.57,84.15-17.33,12.44-2.56,17.57.87,20.15,13.38,7.47,36.2,14.93,72.42,22.38,108.62,2.05,9.97-1.65,15.55-11.65,17.62-18.58,3.85-37.17,7.67-55.77,11.5Z"/>
    <path id="key-inline-l" class="cls-37" d="M1906.92,430.96c-2.92-14.19-5.87-28.36-8.76-42.55-1.57-7.72,1.64-12.63,9.33-14.21,28.1-5.82,56.21-11.6,84.33-17.38,8.77-1.8,14.78,2.09,16.68,11.13,4.72,22.48,9.3,44.99,13.93,67.48.94,4.56,1.91,9.12,2.81,13.7,1.64,8.33-2.63,15.51-11,17.3-27.58,5.86-55.21,11.54-82.86,17.08-8.36,1.67-14.18-2.63-15.9-10.97-2.86-13.85-5.71-27.71-8.56-41.57h0Z"/>
    <rect class="cls-39" x="1945.49" y="408.95" width="41.9" height="29.87" transform="translate(-45.08 405.54) rotate(-11.64)"/>
    <g id="key-text-l" class="cls-36">
      <text id="l" class="cls-25" transform="translate(1934.57 438.93) rotate(-11.64)"><tspan x="0" y="0" xml:space="preserve">  L</tspan></text>
    </g>
  </g>
  <g id="key-n">
    <path id="key-outline-n" class="cls-38" d="M1633.09,721.25c-18.76,3.86-37.51,7.74-56.27,11.59-8.35,1.71-14.26-1.89-15.96-10.06-7.93-38.15-15.79-76.31-23.59-114.49-1.61-7.88,2.65-13.58,11.62-15.63,8.27-1.9,16.63-3.47,24.94-5.19,28.05-5.79,56.1-11.57,84.15-17.33,12.44-2.56,17.57.87,20.15,13.38,7.47,36.2,14.93,72.42,22.38,108.62,2.05,9.97-1.65,15.55-11.65,17.62-18.58,3.85-37.17,7.67-55.77,11.5Z"/>
    <path id="key-inline-n" class="cls-37" d="M1561.47,652.77c-2.92-14.19-5.87-28.36-8.76-42.55-1.57-7.72,1.64-12.63,9.33-14.21,28.1-5.82,56.21-11.6,84.33-17.38,8.77-1.8,14.78,2.09,16.68,11.13,4.72,22.48,9.3,44.99,13.93,67.48.94,4.56,1.91,9.12,2.81,13.7,1.64,8.33-2.63,15.51-11,17.3-27.58,5.86-55.21,11.54-82.86,17.08-8.36,1.67-14.18-2.63-15.9-10.97-2.86-13.85-5.71-27.71-8.56-41.57h0Z"/>
    <rect class="cls-39" x="1600.04" y="630.76" width="41.9" height="29.87" transform="translate(-96.95 340.39) rotate(-11.64)"/>
    <g id="key-text-n" class="cls-36">
      <text id="n" class="cls-25" transform="translate(1585.71 660.74) rotate(-11.64)"><tspan x="0" y="0" xml:space="preserve">  N</tspan></text>
    </g>
  </g>
  <g id="key-m">
    <path id="key-outline-m" class="cls-38" d="M1782.13,690.19c-18.76,3.86-37.51,7.74-56.27,11.59-8.35,1.71-14.26-1.89-15.96-10.06-7.93-38.15-15.79-76.31-23.59-114.49-1.61-7.88,2.65-13.58,11.62-15.63,8.27-1.9,16.63-3.47,24.94-5.19,28.05-5.79,56.1-11.57,84.15-17.33,12.44-2.56,17.57.87,20.15,13.38,7.47,36.2,14.93,72.42,22.38,108.62,2.05,9.97-1.65,15.55-11.65,17.62-18.58,3.85-37.17,7.67-55.77,11.5Z"/>
    <path id="key-inline-m" class="cls-37" d="M1710.5,621.7c-2.92-14.19-5.87-28.36-8.76-42.55-1.57-7.72,1.64-12.63,9.33-14.21,28.1-5.82,56.21-11.6,84.33-17.38,8.77-1.8,14.78,2.09,16.68,11.13,4.72,22.48,9.3,44.99,13.93,67.48.94,4.56,1.91,9.12,2.81,13.7,1.64,8.33-2.63,15.51-11,17.3-27.58,5.86-55.21,11.54-82.86,17.08-8.36,1.67-14.18-2.63-15.9-10.97-2.86-13.85-5.71-27.71-8.56-41.57h0Z"/>
    <rect class="cls-39" x="1749.07" y="599.69" width="41.9" height="29.87" transform="translate(-87.61 369.83) rotate(-11.64)"/>
    <g id="key-text-m" class="cls-36">
      <text id="m" class="cls-25" transform="translate(1739.74 629.67) rotate(-11.64)"><tspan x="0" y="0" xml:space="preserve"> M</tspan></text>
    </g>
  </g>
  <g id="key-tab-2" data-name="key-tab">
    <path id="key-outline-tab-2" data-name="key-outline-tab" class="cls-38" d="M2550.54,341.28c-29.21,0-58.42.01-87.63,0-12.99-.01-20.72-4.82-20.74-13.33-.1-39.72-.1-79.45,0-119.17.02-8.19,8.13-13.01,22.16-13.22,12.95-.19,25.91-.05,38.86-.05h131.06c19.37,0,25.98,4.48,25.98,17.51,0,37.69.01,75.37,0,113.06,0,10.38-7.25,15.19-22.83,15.2h-86.86Z"/>
    <path id="key-inline-tab-2" data-name="key-inline-tab" class="cls-37" d="M2455.26,261.47c0-14.66-.04-29.33.02-43.99.03-7.97,7.1-12.18,20.54-12.19,49.09-.03,98.17-.02,147.26,0,15.3,0,24.03,5.1,24.09,14.45.14,23.26.05,46.52.05,69.78,0,4.72.06,9.44-.01,14.16-.13,8.6-9.75,14.85-24.39,14.9-48.23.18-96.46.17-144.69.01-14.58-.05-22.85-5.5-22.86-14.12-.02-14.33,0-28.66,0-42.99h0Z"/>
    <rect class="cls-39" x="2519.14" y="245.72" width="68.13" height="29.87"/>
    <g id="key-text-tab-2" data-name="key-text-tab" class="cls-36">
      <text class="cls-11" transform="translate(2523.32 272.54)"><tspan x="0" y="0">T</tspan></text>
      <text class="cls-25" transform="translate(2557.25 273.44)"><tspan x="0" y="0">ab</tspan></text>
    </g>
  </g>
  <g id="key-resc">
    <path id="key-inline-resc" class="cls-37" d="M1407.13,685.64c-3.09-15.02-6.2-30.02-9.26-45.04-1.66-8.16,1.72-13.35,9.85-15.03,29.68-6.14,59.37-12.24,89.06-18.34,9.26-1.91,15.61,2.23,17.62,11.79,4.99,23.79,9.83,47.62,14.73,71.43.99,4.83,2.03,9.65,2.98,14.5,1.73,8.82-2.77,16.42-11.61,18.29-29.13,6.18-58.3,12.18-87.51,18.01-8.83,1.77-14.98-2.79-16.81-11.61-3.03-14.66-6.04-29.33-9.06-44h0Z"/>
    <path id="key-outline-resc" class="cls-38" d="M1398.58,697.35c-3.9-18.92-7.81-37.84-11.68-56.77-1.75-8.55,1.74-13.89,10.26-15.64,37.68-7.78,75.37-15.53,113.05-23.27,8.9-1.83,13.96,1.56,15.82,10.56,7.79,37.85,15.58,75.69,23.37,113.54,1.71,8.32-1.93,14.18-10.18,15.89-37.67,7.81-75.36,15.57-113.05,23.27-8.54,1.76-14.12-2.13-15.91-10.81-3.92-18.93-7.8-37.85-11.7-56.78h0ZM1410.34,685.01c2.85,13.86,5.7,27.73,8.56,41.59,1.73,8.34,7.54,12.65,15.88,10.97,27.59-5.52,55.16-11.18,82.69-17.02,8.35-1.77,12.61-8.95,10.97-17.29-.9-4.57-1.88-9.13-2.82-13.7-4.63-22.51-9.22-45.03-13.93-67.51-1.9-9.03-7.91-12.94-16.65-11.14-28.05,5.76-56.11,11.53-84.15,17.33-7.68,1.59-10.87,6.5-9.31,14.21,2.89,14.2,5.83,28.38,8.75,42.57h0Z"/>
    <polygon class="cls-37" points="1434.45 666.56 1492.16 654.68 1489.88 721.08 1465.34 725.95 1434.45 666.56"/>
    <path class="cls-6" d="M1432.32,679.92c-.92-3.47-1.56-6.4-2-8.6-.5-2.55-.85-4.28-1.12-6.74-.08-.67-.42-3.85-.37-8.25.04-3.41.05-5.11.5-6.63.81-2.75,2.24-4.54,3.99-6.74,2.4-3.01,4.75-4.96,6.36-6.28,4-3.27,4.58-2.79,7.86-5.81,2.51-2.31,3.76-3.46,4.87-5.11,1.26-1.89,1.51-2.97,2.62-3.25,1.51-.39,2.67,1.18,5.49,3.02,1.86,1.22,4.19,2.09,8.86,3.84,4.17,1.56,4.66,1.43,8.11,2.91.48.21,2.59,1.12,5.24,2.56,2.37,1.29,3.56,1.93,4.62,2.91,1.13,1.04,1.89,2.33,3.37,4.88.95,1.65,2.05,3.55,3.24,6.28,1.17,2.68,1.82,4.75,2.37,6.51.57,1.85,1.26,4.8,2.62,10.69.66,2.85.75,5.84,1.75,8.6.2.55.54,1.43.37,2.56-.27,1.87-1.64,2.46-2.62,4.07-.98,1.6-.86,3.32-.62,6.74.18,2.55.53,2.52,1.12,7.09.42,3.24.4,4.45.37,5.11-.08,1.86-.38,3.25-.75,4.88-.45,2-.84,3.75-1.75,5.81-.72,1.63-1.86,3.24-4.12,6.39-3.29,4.6-3.95,5-4.37,4.88-.62-.18-.54-1.44-.87-3.95-.28-2.12-.92-4.18-1.37-6.28-1.13-5.16-2.57-10.58-2.99-12.21-1.18-4.5-2.92-11.96-5.37-24.88l7.24-2.58c.74-.35,1.78-.85,2.99-1.49,2.51-1.32,2.74-1.6,2.87-1.86.51-1.02-.21-2-1.37-4.77-.71-1.68-1.19-3.1-1.5-4.07-6.03,2.13-12.06,4.26-18.09,6.39l4.49,14.97-5.23,5.49-7.27-2.88-2.33-16.24-19.81.21.58,9.02,15.15.7,9.88,48.12-4.82-1.86-8.23-5.93-6.4-7.96-2.23-8.31-.84-5.27-2.75-3.69-6.18-5.65-1.55-7.37Z"/>
  </g>
  <g id="key-_-5" data-name="key-?">
    <path id="key-outline-_-3" data-name="key-outline-?" class="cls-38" d="M2235.81,642.11h-57.45c-8.51,0-13.58-4.73-13.6-13.08-.07-38.97-.07-77.93,0-116.9.01-8.03,5.33-12.76,14.53-12.97,8.49-.19,16.98-.05,25.48-.05h85.92c12.7,0,17.03,4.39,17.03,17.17,0,36.97.01,73.93,0,110.9,0,10.18-4.75,14.9-14.97,14.91-18.97.03-37.96.02-56.94.02h0Z"/>
    <path id="key-inline-_-3" data-name="key-inline-?" class="cls-37" d="M2176.53,563.6c0-14.48-.02-28.96.01-43.44.02-7.87,4.27-12.03,12.35-12.04,29.53-.03,59.05,0,88.58,0,9.21,0,14.46,5.04,14.49,14.27.09,22.97.03,45.94.03,68.91,0,4.66.03,9.32-.01,13.98-.08,8.5-5.87,14.66-14.67,14.72-29.01.17-58.02.17-87.03,0-8.77-.05-13.75-5.44-13.75-13.95v-42.45Z"/>
    <rect class="cls-39" x="2204.81" y="532.94" width="58.92" height="75.65"/>
    <g id="key-text-_-3" data-name="key-text-?" class="cls-36">
      <g class="cls-36">
        <text class="cls-10" transform="translate(2250.99 559.03) scale(.96 1)"><tspan x="0" y="0">?</tspan></text>
      </g>
      <g class="cls-36">
        <text class="cls-10" transform="translate(2253.23 559.03) scale(.96 1)"><tspan x="0" y="0">?</tspan></text>
      </g>
      <g class="cls-36">
        <text class="cls-28" transform="translate(2255.61 614.62) scale(.96 1)"><tspan x="0" y="0">/</tspan></text>
      </g>
    </g>
  </g>
  <g id="key-dot">
    <path id="key-outline-dot" class="cls-38" d="M2082.79,642.11h-57.45c-8.51,0-13.58-4.73-13.6-13.08-.07-38.97-.07-77.93,0-116.9.01-8.03,5.33-12.76,14.53-12.97,8.49-.19,16.98-.05,25.48-.05h85.92c12.7,0,17.03,4.39,17.03,17.17,0,36.97.01,73.93,0,110.9,0,10.18-4.75,14.9-14.97,14.91-18.97.03-37.96.02-56.94.02h0Z"/>
    <path id="key-inline-dot" class="cls-37" d="M2023.51,563.6c0-14.48-.02-28.96.01-43.44.02-7.87,4.27-12.03,12.35-12.04,29.53-.03,59.05,0,88.58,0,9.21,0,14.46,5.04,14.49,14.27.09,22.97.03,45.94.03,68.91,0,4.66.03,9.32-.01,13.98-.08,8.5-5.87,14.66-14.67,14.72-29.01.17-58.02.17-87.03,0-8.77-.05-13.75-5.44-13.75-13.95v-42.45Z"/>
    <rect class="cls-39" x="2051.79" y="532.94" width="58.92" height="75.65"/>
    <g id="key-text-dot" class="cls-36">
      <g class="cls-36">
        <text class="cls-10" transform="translate(2100.2 559.03) scale(.96 1)"><tspan x="0" y="0">&gt;</tspan></text>
      </g>
      <g class="cls-36">
        <text class="cls-28" transform="translate(2106.37 604.46) scale(.96 1)"><tspan x="0" y="0">.</tspan></text>
      </g>
    </g>
  </g>
  <g id="key-comma">
    <g id="key-comma-2" data-name="key-comma">
      <path id="key-outline-comma" class="cls-38" d="M1933.21,659.92c-18.76,3.86-37.51,7.73-56.27,11.59-8.33,1.72-14.26-1.89-15.96-10.07-7.93-38.15-15.79-76.31-23.59-114.5-1.61-7.87,2.65-13.57,11.61-15.64,8.28-1.9,16.62-3.48,24.95-5.19,28.05-5.78,56.1-11.56,84.15-17.34,12.44-2.56,17.57.86,20.14,13.38,7.46,36.21,14.93,72.41,22.38,108.62,2.05,9.97-1.65,15.55-11.65,17.62-18.57,3.86-37.18,7.68-55.76,11.51h0Z"/>
      <path id="key-inline-comma" class="cls-37" d="M1859.31,594.99c-2.92-14.18-5.86-28.36-8.76-42.55-1.57-7.71,1.75-12.64,9.67-14.28,28.92-5.99,57.84-11.92,86.76-17.88,9.02-1.86,15.18,2.02,17.07,11.05,4.72,22.48,9.3,44.99,13.94,67.49.94,4.56,1.91,9.12,2.81,13.69,1.64,8.34-2.79,15.54-11.4,17.38-28.38,6.02-56.79,11.87-85.24,17.56-8.6,1.72-14.56-2.55-16.28-10.89-2.86-13.86-5.71-27.72-8.57-41.58Z"/>
      <rect class="cls-39" x="1887.85" y="552.53" width="58.92" height="75.65" transform="translate(-79.69 399.05) rotate(-11.64)"/>
      <g id="key-text-comma" class="cls-36">
        <g class="cls-36">
          <text class="cls-10" transform="translate(1933.5 575.04) rotate(-11.64) scale(.96 1)"><tspan x="0" y="0">&lt;</tspan></text>
        </g>
        <g class="cls-36">
          <text class="cls-28" transform="translate(1948.71 608.74) rotate(-11.64) scale(.96 1)"><tspan x="0" y="0">,</tspan></text>
        </g>
      </g>
    </g>
  </g>
  <g id="key-_-6" data-name="key-+">
    <path id="key-outline-_-4" data-name="key-outline-+" class="cls-38" d="M2235.38,186.93c-19.15-.11-38.3-.23-57.45-.34-8.51-.05-13.55-4.81-13.52-13.16.16-38.97.39-77.93.69-116.9.06-8.03,5.41-12.73,14.61-12.88,8.49-.14,16.98.05,25.48.1,28.64.17,57.28.34,85.92.51,12.7.07,17,4.49,16.93,17.27-.22,36.97-.43,73.93-.65,110.9-.06,10.18-4.84,14.87-15.06,14.82-18.97-.08-37.96-.2-56.94-.32h0Z"/>
    <path id="key-inline-_-4" data-name="key-inline-+" class="cls-37" d="M2176.56,108.07c.09-14.48.15-28.96.27-43.44.07-7.87,4.34-12,12.42-11.97,29.53.14,59.05.35,88.58.52,9.21.05,14.43,5.13,14.41,14.36-.05,22.97-.24,45.94-.38,68.91-.03,4.66-.02,9.32-.09,13.98-.13,8.5-5.96,14.63-14.76,14.63-29.01,0-58.02-.17-87.03-.51-8.77-.1-13.72-5.52-13.67-14.03.08-14.15.17-28.3.25-42.45Z"/>
    <rect class="cls-39" x="2196.44" y="86.11" width="75.65" height="58.92" transform="translate(2105.51 2349.12) rotate(-89.66)"/>
    <g id="key-text-_-4" data-name="key-text-+" class="cls-36">
      <g class="cls-36">
        <text class="cls-24" transform="translate(2254.8 92.89) rotate(.34) scale(1.04 1)"><tspan x="0" y="0">+</tspan></text>
      </g>
      <g class="cls-36">
        <text id="_-3" data-name="=" class="cls-26" transform="translate(2252.14 155.63) rotate(.34) scale(.91 1)"><tspan x="0" y="0">=</tspan></text>
      </g>
    </g>
  </g>
  <g id="key-_-7" data-name="key-]">
    <path id="key-outline-_-5" data-name="key-outline-]" class="cls-38" d="M2360.86,339.88c-19.15-.11-38.3-.23-57.45-.34-8.51-.05-13.55-4.81-13.52-13.16.16-38.97.39-77.93.69-116.9.06-8.03,5.41-12.73,14.61-12.88,8.49-.14,16.98.05,25.48.1,28.64.17,57.28.34,85.92.51,12.7.07,17,4.49,16.93,17.27-.22,36.97-.43,73.93-.65,110.9-.06,10.18-4.84,14.87-15.06,14.82-18.97-.08-37.96-.2-56.94-.32h0Z"/>
    <path id="key-inline-_-5" data-name="key-inline-]" class="cls-37" d="M2302.05,261.02c.09-14.48.15-28.96.27-43.44.07-7.87,4.34-12,12.42-11.97,29.53.14,59.05.35,88.58.52,9.21.05,14.43,5.13,14.41,14.36-.05,22.97-.24,45.94-.38,68.91-.03,4.66-.02,9.32-.09,13.98-.13,8.5-5.96,14.63-14.76,14.63-29.01,0-58.02-.17-87.03-.51-8.77-.1-13.72-5.52-13.67-14.03.08-14.15.17-28.3.25-42.45Z"/>
    <rect class="cls-39" x="2321.92" y="239.06" width="75.65" height="58.92" transform="translate(2077.3 2626.64) rotate(-89.66)"/>
    <g id="key-text-_-5" data-name="key-text-]" class="cls-36">
      <g class="cls-36">
        <text class="cls-34" transform="translate(2386.46 244.69) rotate(.34) scale(1.08 1)"><tspan x="0" y="0">}</tspan></text>
      </g>
      <g class="cls-36">
        <text id="_-4" data-name="]" class="cls-19" transform="translate(2387.38 302.1) rotate(.34) scale(.85 1)"><tspan x="0" y="0">]</tspan></text>
      </g>
    </g>
  </g>
  <g id="key-_-8" data-name="key-[">
    <path id="key-outline-_-6" data-name="key-outline-[" class="cls-38" d="M2273.6,490.99c-19.15-.11-38.3-.23-57.45-.34-8.51-.05-13.55-4.81-13.52-13.16.16-38.97.39-77.93.69-116.9.06-8.03,5.41-12.73,14.61-12.88,8.49-.14,16.98.05,25.48.1,28.64.17,57.28.34,85.92.51,12.7.07,17,4.49,16.93,17.27-.22,36.97-.43,73.93-.65,110.9-.06,10.18-4.84,14.87-15.06,14.82-18.97-.08-37.96-.2-56.94-.32h0Z"/>
    <path id="key-inline-_-6" data-name="key-inline-[" class="cls-37" d="M2214.79,412.13c.09-14.48.15-28.96.27-43.44.07-7.87,4.34-12,12.42-11.97,29.53.14,59.05.35,88.58.52,9.21.05,14.43,5.13,14.41,14.36-.05,22.97-.24,45.94-.38,68.91-.03,4.66-.02,9.32-.09,13.98-.13,8.5-5.96,14.63-14.76,14.63-29.01,0-58.02-.17-87.03-.51-8.77-.1-13.72-5.52-13.67-14.03.08-14.15.17-28.3.25-42.45Z"/>
    <rect class="cls-39" x="2234.66" y="390.17" width="75.65" height="58.92" transform="translate(1839.45 2689.61) rotate(-89.66)"/>
    <g id="key-text-_-6" data-name="key-text-[" class="cls-36">
      <g class="cls-36">
        <text class="cls-34" transform="translate(2281.32 395.8) rotate(.34) scale(1.08 1)"><tspan x="0" y="0"></tspan></text>
      </g>
      <g class="cls-36">
        <text id="_-5" data-name="[" class="cls-19" transform="translate(2300.12 453.21) rotate(.34) scale(.85 1)"><tspan x="0" y="0"></tspan></text>
      </g>
    </g>
  </g>
  <g id="key-_-9" data-name="key-[">
    <path id="key-outline-_-7" data-name="key-outline-[" class="cls-38" d="M2120.76,490.33c-19.15-.11-38.3-.23-57.45-.34-8.51-.05-13.55-4.81-13.52-13.16.16-38.97.39-77.93.69-116.9.06-8.03,5.41-12.73,14.61-12.88,8.49-.14,16.98.05,25.48.1,28.64.17,57.28.34,85.92.51,12.7.07,17,4.49,16.93,17.27-.22,36.97-.43,73.93-.65,110.9-.06,10.18-4.84,14.87-15.06,14.82-18.97-.08-37.96-.2-56.94-.32h0Z"/>
    <path id="key-inline-_-7" data-name="key-inline-[" class="cls-37" d="M2061.95,411.48c.09-14.48.15-28.96.27-43.44.07-7.87,4.34-12,12.42-11.97,29.53.14,59.05.35,88.58.52,9.21.05,14.43,5.13,14.41,14.36-.05,22.97-.24,45.94-.38,68.91-.03,4.66-.02,9.32-.09,13.98-.13,8.5-5.96,14.63-14.76,14.63-29.01,0-58.02-.17-87.03-.51-8.77-.1-13.72-5.52-13.67-14.03.08-14.15.17-28.3.25-42.45Z"/>
    <rect class="cls-39" x="2081.82" y="389.52" width="75.65" height="58.92" transform="translate(1688.16 2536.12) rotate(-89.66)"/>
    <g id="key-text-_-7" data-name="key-text-[" class="cls-36">
      <g class="cls-36">
        <text class="cls-34" transform="translate(2128.47 395.15) rotate(.34) scale(1.08 1)"><tspan x="0" y="0" xml:space="preserve">   :</tspan></text>
      </g>
      <g class="cls-36">
        <text id="_-6" data-name="[" class="cls-19" transform="translate(2147.28 452.55) rotate(.34) scale(.85 1)"><tspan x="0" y="0" xml:space="preserve"> ;</tspan></text>
      </g>
    </g>
  </g>
</svg>
