<?xml version="1.0" encoding="UTF-8"?>
<svg id="Layer_1" data-name="Layer 1" xmlns="http://www.w3.org/2000/svg" viewBox="0 0 2774 953">
  <defs>
    <style>
      .cls-1 {
        font-size: 75px;
      }

      .cls-1, .cls-2, .cls-3, .cls-4, .cls-5 {
        isolation: isolate;
      }

      .cls-1, .cls-3, .cls-4, .cls-5 {
        // fill: #fff;
        fill: #000;
        font-family: 'Helvetica', MazinDEMO-Medium, 'Mazin DEMO';
        font-weight: 500;
      }

      .cls-6 {
        // fill: #363636;
        fill: #c1b368;
      }

      .cls-6, .cls-7, .cls-8 {
        stroke-width: 0px;
      }

      .cls-3, .cls-5 {
        font-size: 75px;
      }

      .cls-7 {
        fill: none;
      }

      .cls-4 {
        font-size: 75px;
      }

      .cls-8 {
        // fill: #414241;
        fill: #f9f4d9;
      }

      .cls-5 {
        letter-spacing: -.03em;
      }

      .cls-9 {
        letter-spacing: -.02em;
      }

      .cls-10 {
        letter-spacing: 0em;
      }

      .cls-11 {
        letter-spacing: -.08em;
      }
    </style>
  </defs>
  <g id="key-tab">
    <path id="key-outline-tab" class="cls-6" d="M363.43,345.67c-29.21,0-58.42.01-87.63,0-12.99-.01-20.72-4.82-20.74-13.33-.1-39.72-.1-79.45,0-119.17.02-8.19,8.13-13.01,22.16-13.22,12.95-.19,25.91-.05,38.86-.05,43.69,0,87.37,0,131.06,0,19.37,0,25.98,4.48,25.98,17.51,0,37.69.01,75.37,0,113.06,0,10.38-7.25,15.19-22.83,15.2-28.95,0-57.9,0-86.86,0Z"/>
    <path id="key-inline-tab" class="cls-8" d="M268.15,265.86c0-14.66-.04-29.33.02-43.99.03-7.97,7.1-12.18,20.54-12.19,49.09-.03,98.17-.02,147.26,0,15.3,0,24.03,5.1,24.09,14.45.14,23.26.05,46.52.05,69.78,0,4.72.06,9.44-.01,14.16-.13,8.6-9.75,14.85-24.39,14.9-48.23.18-96.46.17-144.69.01-14.58-.05-22.85-5.5-22.86-14.12-.02-14.33,0-28.66,0-42.99Z"/>
    <rect class="cls-7" x="332.03" y="250.11" width="68.13" height="29.87"/>
    <text id="key-text-tab" class="cls-3" transform="translate(332.03 276.03)"><tspan class="cls-11" x="0" y="0">T</tspan><tspan x="19.84" y="0">ab</tspan></text>
  </g>
  <g id="key-lctrl">
    <path id="key-outline-lctrl" class="cls-6" d="M355.01,496.91c-34.34,0-68.69.01-103.03,0-15.27-.01-24.36-4.82-24.39-13.33-.12-39.72-.12-79.45,0-119.17.03-8.19,9.56-13.01,26.06-13.22,15.22-.19,30.46-.05,45.69-.05,51.37,0,102.74-.01,154.1,0,22.78.01,30.55,4.48,30.55,17.51,0,37.69.01,75.37-.01,113.06,0,10.38-8.52,15.19-26.85,15.2-34.02,0-68.07,0-102.12,0Z"/>
    <path id="key-inline-lctrl" class="cls-8" d="M239.51,416.04c0-14.66-.05-29.33.02-43.99.04-7.97,8.49-12.18,24.57-12.19,58.74-.03,117.47-.02,176.21-.01,18.31,0,28.76,5.1,28.83,14.45.17,23.26.06,46.52.06,69.78,0,4.72.07,9.44-.02,14.16-.16,8.6-11.67,14.85-29.18,14.9-57.71.18-115.42.17-173.14.01-17.45-.05-27.34-5.5-27.35-14.12,0-14.34,0-28.66,0-42.99Z"/>
    <rect class="cls-7" x="312.24" y="405.07" width="93.62" height="29.87"/>
    <text id="key-text-lctrl" class="cls-3" transform="translate(312.24 430.98)"><tspan class="cls-9" x="0" y="0">L</tspan><tspan class="cls-10" x="20.52" y="0">Ctrl</tspan></text>
  </g>
  <g id="key-lshift">
    <path id="key-outline-lshift" class="cls-6" d="M353.4,648.42c-44.59,0-89.17.01-133.76,0-19.82-.01-31.62-4.82-31.66-13.33-.15-39.72-.15-79.45,0-119.17.03-8.19,12.41-13.01,33.83-13.22,19.76-.19,39.54-.05,59.32-.05,66.69,0,133.37-.01,200.06,0,29.57.01,39.66,4.48,39.66,17.51,0,37.69.02,75.37-.01,113.06-.01,10.38-11.06,15.19-34.85,15.2-44.19.01-88.39,0-132.59,0Z"/>
    <path id="key-inline-lshift" class="cls-8" d="M203.46,567.55c0-14.66-.06-29.33.03-43.99.05-7.97,11.02-12.18,31.9-12.19,76.25-.03,152.5-.02,228.76-.01,23.77,0,37.33,5.1,37.42,14.45.22,23.26.08,46.52.08,69.78,0,4.72.09,9.44-.02,14.16-.2,8.6-15.15,14.85-37.88,14.9-74.92.18-149.84.17-224.76.01-22.65-.05-35.5-5.5-35.51-14.12-.04-14.34-.02-28.67-.02-42.99Z"/>
    <rect class="cls-7" x="303.45" y="556.07" width="104.11" height="29.87"/>
    <text id="key-text-lshift" class="cls-3" transform="translate(303.45 581.98)"><tspan x="0" y="0">LShift</tspan></text>
  </g>
  <g id="key-space">
    <path id="key-outline-space" class="cls-6" d="M1069.53,893.44c-43.55-9.53-87.1-19.06-130.64-28.61-19.36-4.25-29.84-11.56-28.02-20.03,8.5-39.54,17.15-79.05,25.96-118.53,1.82-8.14,14.96-10.29,35.92-5.92,19.35,4.03,38.63,8.41,57.95,12.64,65.13,14.26,130.27,28.51,195.4,42.78,28.88,6.33,37.76,12.94,34.93,25.9-8.2,37.49-16.4,74.97-24.63,112.45-2.27,10.32-14.11,12.75-37.35,7.67-43.18-9.43-86.35-18.89-129.52-28.35Z"/>
    <path id="key-inline-space" class="cls-8" d="M940.28,782.59c3.3-15.06,6.53-30.13,9.92-45.17,1.84-8.18,13.63-10.12,34.26-5.62,75.35,16.47,150.68,32.97,226.02,49.48,23.49,5.14,35.74,13.31,33.73,22.93-5.01,23.93-10.38,47.78-15.61,71.67-1.06,4.85-2.03,9.71-3.21,14.53-2.14,8.79-18.31,11.97-40.78,7.11-74.06-16.03-148.09-32.24-222.08-48.62-22.37-4.95-33.84-13.33-31.91-22.19,3.2-14.7,6.44-29.41,9.66-44.12Z"/>
    <rect class="cls-7" x="1073.81" y="763.59" width="29.87" height="104.11" transform="translate(59.1 1704.74) rotate(-77.65)"/>
    <text id="key-text-space" class="cls-1" transform="translate(1035.48 815.27) rotate(12.35)"><tspan x="0" y="0">LShift</tspan></text>
  </g>
  <g id="key-q">
    <path id="key-outline-q" class="cls-6" d="M555.08,344.01c-19.15,0-38.3.01-57.45,0-8.51-.01-13.58-4.73-13.6-13.08-.07-38.97-.07-77.93,0-116.9.01-8.03,5.33-12.76,14.53-12.97,8.49-.19,16.98-.05,25.48-.05,28.64,0,57.28,0,85.92,0,12.7,0,17.03,4.39,17.03,17.17,0,36.97.01,73.93,0,110.9,0,10.18-4.75,14.9-14.97,14.91-18.98.03-37.96.02-56.94.02Z"/>
    <path id="key-inline-q" class="cls-8" d="M498.75,262.49c0-14.48-.02-28.96.01-43.44.02-7.87,4.15-12.03,12.01-12.04,28.7-.03,57.4,0,86.1,0,8.95,0,14.05,5.04,14.09,14.27.08,22.97.03,45.94.03,68.91,0,4.66.03,9.32-.01,13.98-.08,8.5-5.7,14.66-14.26,14.72-28.2.17-56.4.17-84.59.01-8.52-.05-13.36-5.44-13.37-13.95-.02-14.16-.01-28.31-.01-42.45Z"/>
    <rect class="cls-7" x="541.57" y="250.11" width="68.13" height="29.87"/>
    <text id="key-text-q" class="cls-3" transform="translate(541.57 276.03)"><tspan x="0" y="0">Q</tspan></text>
  </g>
  <g id="key-a">
    <path id="key-outline-a" class="cls-6" d="M564.09,495.52c-19.15,0-38.3.01-57.45,0-8.51-.01-13.58-4.73-13.6-13.08-.07-38.97-.07-77.93,0-116.9.01-8.03,5.33-12.76,14.53-12.97,8.49-.19,16.98-.05,25.48-.05,28.64,0,57.28-.01,85.92,0,12.7.01,17.03,4.39,17.03,17.17,0,36.97.01,73.93,0,110.9,0,10.18-4.75,14.9-14.97,14.91-18.97.03-37.96.02-56.94.02Z"/>
    <path id="key-inline-a" class="cls-8" d="M507.76,413.99c0-14.48-.02-28.96.01-43.44.02-7.87,4.15-12.03,12.01-12.04,28.7-.03,57.4-.01,86.1-.01,8.95,0,14.05,5.04,14.09,14.27.08,22.97.03,45.94.03,68.91,0,4.66.03,9.32-.01,13.98-.08,8.5-5.7,14.66-14.26,14.72-28.2.17-56.4.17-84.59.01-8.52-.05-13.36-5.44-13.37-13.95-.02-14.15-.01-28.3-.01-42.45Z"/>
    <rect class="cls-7" x="550.58" y="401.62" width="68.13" height="29.87"/>
    <text id="key-text-a" class="cls-3" transform="translate(550.58 427.54)"><tspan x="0" y="0">A</tspan></text>
  </g>
  <g id="key-z">
    <path id="key-outline-z" class="cls-6" d="M600.09,647c-19.15,0-38.3.01-57.45,0-8.51-.01-13.58-4.73-13.6-13.08-.07-38.97-.07-77.93,0-116.9.01-8.03,5.33-12.76,14.53-12.97,8.49-.19,16.98-.05,25.48-.05,28.64,0,57.28-.01,85.92,0,12.7.01,17.03,4.39,17.03,17.17,0,36.97.01,73.93,0,110.9,0,10.18-4.75,14.9-14.97,14.91-18.97.03-37.96.02-56.94.02Z"/>
    <path id="key-inline-z" class="cls-8" d="M543.76,567.03c0-14.48-.02-28.96.01-43.44.02-7.87,4.15-12.03,12.01-12.04,28.7-.03,57.4-.01,86.1-.01,8.95,0,14.05,5.04,14.09,14.27.08,22.97.03,45.94.03,68.91,0,4.66.03,9.32-.01,13.98-.08,8.5-5.7,14.66-14.26,14.72-28.2.17-56.4.17-84.59.01-8.52-.05-13.36-5.44-13.37-13.95-.02-14.15-.01-28.3-.01-42.45Z"/>
    <rect class="cls-7" x="586.58" y="554.66" width="68.13" height="29.87"/>
    <text id="key-text-z" class="cls-3" transform="translate(586.58 580.58)"><tspan x="0" y="0">Z</tspan></text>
  </g>
  <g id="key-w">
    <path id="key-outline-w" class="cls-6" d="M700.56,343.6c-18.71-4.1-37.42-8.18-56.12-12.29-8.32-1.83-12.26-7.53-10.49-15.68,8.27-38.08,16.6-76.14,25-114.19,1.73-7.85,7.94-11.33,16.97-9.56,8.33,1.63,16.6,3.59,24.9,5.4,27.98,6.12,55.96,12.24,83.93,18.38,12.41,2.72,15.7,7.94,12.97,20.42-7.9,36.11-15.81,72.23-23.72,108.33-2.18,9.94-7.83,13.54-17.81,11.36-18.54-4.04-37.09-8.11-55.63-12.17Z"/>
    <path id="key-inline-w" class="cls-8" d="M662.97,251.91c3.1-14.15,6.17-28.3,9.3-42.44,1.7-7.69,6.63-10.87,14.3-9.19,28.04,6.11,56.07,12.26,84.11,18.41,8.74,1.92,12.65,7.92,10.71,16.95-4.83,22.46-9.8,44.88-14.71,67.32-1,4.55-1.96,9.11-3,13.66-1.89,8.28-8.71,13.1-17.08,11.33-27.58-5.86-55.13-11.9-82.64-18.09-8.32-1.87-11.89-8.17-10.07-16.49,3.02-13.81,6.05-27.63,9.08-41.46Z"/>
    <rect class="cls-7" x="704.57" y="249.28" width="29.87" height="40.47" transform="translate(302.33 914.72) rotate(-77.65)"/>
    <text id="key-text-w" class="cls-1" transform="translate(697.36 275.94) rotate(12.35)"><tspan x="0" y="0">W</tspan></text>
  </g>
  <g id="key-e">
    <path id="key-outline-e" class="cls-6" d="M848.48,375.09c-18.71-4.1-37.42-8.18-56.12-12.29-8.32-1.83-12.26-7.53-10.49-15.68,8.27-38.08,16.6-76.14,25-114.19,1.73-7.85,7.94-11.33,16.97-9.56,8.33,1.63,16.6,3.59,24.9,5.4,27.98,6.12,55.96,12.24,83.93,18.38,12.41,2.72,15.7,7.94,12.97,20.42-7.9,36.11-15.81,72.23-23.72,108.33-2.18,9.94-7.83,13.54-17.81,11.36-18.55-4.04-37.09-8.11-55.63-12.17Z"/>
    <path id="key-inline-e" class="cls-8" d="M810.88,283.4c3.1-14.15,6.17-28.3,9.3-42.44,1.7-7.69,6.63-10.87,14.3-9.19,28.04,6.11,56.07,12.26,84.11,18.41,8.74,1.92,12.65,7.92,10.71,16.95-4.83,22.46-9.8,44.88-14.71,67.32-1,4.55-1.96,9.11-3,13.66-1.89,8.28-8.71,13.1-17.08,11.33-27.58-5.86-55.13-11.9-82.64-18.09-8.32-1.87-11.89-8.17-10.07-16.49,3.02-13.82,6.06-27.64,9.08-41.46Z"/>
    <rect class="cls-7" x="853.27" y="280.12" width="29.87" height="42.07" transform="translate(388.31 1084.85) rotate(-77.65)"/>
    <text id="key-text-e" class="cls-1" transform="translate(845.27 307.42) rotate(12.35)"><tspan x="0" y="0" xml:space="preserve"> E</tspan></text>
  </g>
  <g id="key-r">
    <path id="key-outline-r" class="cls-6" d="M999.23,407.24c-18.71-4.1-37.42-8.18-56.12-12.29-8.32-1.83-12.26-7.53-10.49-15.68,8.27-38.08,16.6-76.14,25-114.19,1.73-7.85,7.94-11.33,16.97-9.56,8.33,1.63,16.6,3.59,24.9,5.4,27.98,6.12,55.96,12.24,83.93,18.38,12.41,2.72,15.7,7.94,12.97,20.42-7.9,36.11-15.81,72.23-23.72,108.33-2.18,9.94-7.83,13.54-17.81,11.36-18.55-4.04-37.09-8.1-55.63-12.17Z"/>
    <path id="key-inline-r" class="cls-8" d="M961.64,315.56c3.1-14.15,6.17-28.3,9.3-42.44,1.7-7.69,6.63-10.87,14.3-9.19,28.04,6.11,56.07,12.26,84.11,18.41,8.74,1.92,12.65,7.92,10.71,16.95-4.83,22.46-9.8,44.88-14.71,67.32-1,4.55-1.96,9.11-3,13.66-1.89,8.28-8.71,13.1-17.08,11.33-27.58-5.86-55.13-11.9-82.64-18.09-8.32-1.87-11.89-8.17-10.07-16.49,3.02-13.82,6.05-27.64,9.08-41.46Z"/>
    <rect class="cls-7" x="1003.07" y="313.05" width="29.87" height="40.1" transform="translate(474.87 1256.3) rotate(-77.65)"/>
    <text id="key-text-r" class="cls-1" transform="translate(996.03 339.58) rotate(12.35)"><tspan x="0" y="0" xml:space="preserve"> R</tspan></text>
  </g>
  <g id="key-t">
    <path id="key-outline-t" class="cls-6" d="M1147.35,438.78c-18.71-4.1-37.42-8.18-56.12-12.29-8.32-1.83-12.26-7.53-10.49-15.68,8.27-38.08,16.6-76.14,25-114.19,1.73-7.85,7.94-11.33,16.97-9.56,8.33,1.63,16.6,3.59,24.9,5.4,27.98,6.12,55.96,12.24,83.93,18.38,12.41,2.72,15.7,7.94,12.97,20.42-7.9,36.11-15.81,72.23-23.72,108.33-2.18,9.94-7.83,13.54-17.81,11.36-18.54-4.04-37.08-8.11-55.63-12.17Z"/>
    <path id="key-inline-t" class="cls-8" d="M1109.76,347.09c3.1-14.15,6.17-28.3,9.3-42.44,1.7-7.69,6.63-10.87,14.3-9.19,28.04,6.11,56.07,12.26,84.11,18.41,8.74,1.92,12.65,7.92,10.71,16.95-4.83,22.46-9.8,44.88-14.71,67.32-1,4.55-1.96,9.11-3,13.66-1.89,8.28-8.71,13.1-17.08,11.33-27.58-5.86-55.13-11.9-82.64-18.09-8.32-1.87-11.89-8.17-10.07-16.49,3.02-13.82,6.05-27.64,9.08-41.46Z"/>
    <rect class="cls-7" x="1152.08" y="343.88" width="29.87" height="41.9" transform="translate(561.02 1426.8) rotate(-77.65)"/>
    <text id="key-text-t" class="cls-1" transform="translate(1144.15 371.12) rotate(12.35)"><tspan x="0" y="0" xml:space="preserve"> T</tspan></text>
  </g>
  <g id="key-s">
    <path id="key-outline-s" class="cls-6" d="M703.16,500.52c-18.71-4.1-37.42-8.18-56.12-12.29-8.32-1.83-12.26-7.53-10.49-15.68,8.27-38.08,16.6-76.14,25-114.19,1.73-7.85,7.94-11.33,16.97-9.56,8.33,1.63,16.6,3.59,24.9,5.4,27.98,6.12,55.96,12.24,83.93,18.38,12.41,2.72,15.7,7.94,12.97,20.42-7.9,36.11-15.81,72.23-23.72,108.33-2.18,9.94-7.83,13.54-17.81,11.36-18.54-4.04-37.09-8.11-55.63-12.17Z"/>
    <path id="key-inline-s" class="cls-8" d="M665.57,408.83c3.1-14.15,6.17-28.3,9.3-42.44,1.7-7.69,6.63-10.87,14.3-9.19,28.04,6.11,56.07,12.26,84.11,18.41,8.74,1.92,12.65,7.92,10.71,16.95-4.83,22.46-9.8,44.88-14.71,67.32-1,4.55-1.96,9.11-3,13.66-1.89,8.28-8.71,13.1-17.08,11.33-27.58-5.86-55.13-11.9-82.64-18.09-8.32-1.87-11.89-8.17-10.07-16.49,3.02-13.82,6.05-27.64,9.08-41.46Z"/>
    <rect class="cls-7" x="707.11" y="406.25" width="29.87" height="40.34" transform="translate(151.05 1040.55) rotate(-77.65)"/>
    <text id="key-text-s" class="cls-1" transform="translate(699.96 432.85) rotate(12.35)"><tspan x="0" y="0" xml:space="preserve"> S</tspan></text>
  </g>
  <g id="key-d">
    <path id="key-outline-d" class="cls-6" d="M855.62,532.69c-18.71-4.1-37.42-8.18-56.12-12.29-8.32-1.83-12.26-7.53-10.49-15.68,8.27-38.08,16.6-76.14,25-114.19,1.73-7.85,7.94-11.33,16.97-9.56,8.33,1.63,16.6,3.59,24.9,5.4,27.98,6.12,55.96,12.24,83.93,18.38,12.41,2.72,15.7,7.94,12.97,20.42-7.9,36.11-15.81,72.23-23.72,108.33-2.18,9.94-7.83,13.54-17.81,11.36-18.55-4.04-37.09-8.11-55.63-12.17Z"/>
    <path id="key-inline-d" class="cls-8" d="M818.02,441.01c3.1-14.15,6.17-28.3,9.3-42.44,1.7-7.69,6.63-10.87,14.3-9.19,28.04,6.11,56.07,12.26,84.11,18.41,8.74,1.92,12.65,7.92,10.71,16.95-4.83,22.46-9.8,44.88-14.71,67.32-1,4.55-1.96,9.11-3,13.66-1.89,8.28-8.71,13.1-17.08,11.33-27.58-5.86-55.13-11.9-82.64-18.09-8.32-1.87-11.89-8.17-10.07-16.49,3.03-13.82,6.06-27.64,9.08-41.46Z"/>
    <rect class="cls-7" x="858.71" y="439.11" width="29.87" height="38.58" transform="translate(238.99 1213.78) rotate(-77.65)"/>
    <text id="key-text-d" class="cls-1" transform="translate(852.41 465.03) rotate(12.35)"><tspan x="0" y="0" xml:space="preserve"> D</tspan></text>
  </g>
  <g id="key-f">
    <path id="key-outline-f" class="cls-6" d="M1002.87,565.44c-18.71-4.1-37.42-8.18-56.12-12.29-8.32-1.83-12.26-7.53-10.49-15.68,8.27-38.08,16.6-76.14,25-114.19,1.73-7.85,7.94-11.33,16.97-9.56,8.33,1.63,16.6,3.59,24.9,5.4,27.98,6.12,55.96,12.24,83.93,18.38,12.41,2.72,15.7,7.94,12.97,20.42-7.9,36.11-15.81,72.23-23.72,108.33-2.18,9.94-7.83,13.54-17.81,11.36-18.54-4.05-37.08-8.11-55.63-12.17Z"/>
    <path id="key-inline-f" class="cls-8" d="M965.28,473.75c3.1-14.15,6.17-28.3,9.3-42.44,1.7-7.69,6.63-10.87,14.3-9.19,28.04,6.11,56.07,12.26,84.11,18.41,8.74,1.92,12.65,7.92,10.71,16.95-4.83,22.46-9.8,44.88-14.71,67.32-1,4.55-1.96,9.11-3,13.66-1.89,8.28-8.71,13.1-17.08,11.33-27.58-5.86-55.13-11.9-82.64-18.09-8.32-1.87-11.89-8.17-10.07-16.49,3.02-13.82,6.05-27.64,9.08-41.46Z"/>
    <rect class="cls-7" x="1007.46" y="470.65" width="29.87" height="41.64" transform="translate(323.62 1385.09) rotate(-77.65)"/>
    <text id="key-text-f" class="cls-1" transform="translate(999.67 497.77) rotate(12.35)"><tspan x="0" y="0" xml:space="preserve"> F</tspan></text>
  </g>
  <g id="key-g">
    <path id="key-outline-g" class="cls-6" d="M1153.56,597.4c-18.71-4.1-37.42-8.18-56.12-12.29-8.32-1.83-12.26-7.53-10.49-15.68,8.27-38.08,16.6-76.14,25-114.19,1.73-7.85,7.94-11.33,16.97-9.56,8.33,1.63,16.6,3.59,24.9,5.4,27.98,6.12,55.96,12.24,83.93,18.38,12.41,2.72,15.7,7.94,12.97,20.42-7.9,36.11-15.81,72.23-23.72,108.33-2.18,9.94-7.83,13.54-17.81,11.36-18.55-4.05-37.09-8.11-55.63-12.17Z"/>
    <path id="key-inline-g" class="cls-8" d="M1115.97,505.71c3.1-14.15,6.17-28.3,9.3-42.44,1.7-7.69,6.63-10.87,14.3-9.19,28.04,6.11,56.07,12.26,84.11,18.41,8.74,1.92,12.65,7.92,10.71,16.95-4.83,22.46-9.8,44.88-14.71,67.32-1,4.55-1.96,9.11-3,13.66-1.89,8.28-8.71,13.1-17.08,11.33-27.58-5.86-55.13-11.9-82.64-18.09-8.32-1.87-11.89-8.17-10.07-16.49,3.02-13.82,6.05-27.64,9.08-41.46Z"/>
    <rect class="cls-7" x="1155.81" y="498.38" width="29.87" height="45.55" transform="translate(411.24 1553.34) rotate(-77.65)"/>
    <text id="key-text-g" class="cls-1" transform="translate(1146.09 527.05) rotate(12.35)"><tspan x="0" y="0" xml:space="preserve"> G</tspan></text>
  </g>
  <g id="key-b">
    <path id="key-outline-b" class="cls-6" d="M1195.79,760.98c-18.71-4.1-37.42-8.18-56.12-12.29-8.32-1.83-12.26-7.53-10.49-15.68,8.27-38.08,16.6-76.14,25-114.19,1.73-7.85,7.94-11.33,16.97-9.56,8.33,1.63,16.6,3.59,24.9,5.4,27.98,6.12,55.96,12.24,83.93,18.38,12.41,2.72,15.7,7.94,12.97,20.42-7.9,36.11-15.81,72.23-23.72,108.33-2.18,9.94-7.83,13.54-17.81,11.36-18.54-4.04-37.08-8.11-55.63-12.17Z"/>
    <path id="key-inline-b" class="cls-8" d="M1158.2,669.29c3.1-14.15,6.17-28.3,9.3-42.44,1.7-7.69,6.63-10.87,14.3-9.19,28.04,6.11,56.07,12.26,84.11,18.41,8.74,1.92,12.65,7.92,10.71,16.95-4.83,22.46-9.8,44.88-14.71,67.32-1,4.55-1.96,9.11-3,13.66-1.89,8.28-8.71,13.1-17.08,11.33-27.58-5.86-55.13-11.9-82.64-18.09-8.32-1.87-11.89-8.17-10.07-16.49,3.02-13.82,6.05-27.64,9.08-41.46Z"/>
    <rect class="cls-7" x="1197.84" y="662.14" width="29.87" height="45.13" transform="translate(284.52 1722.96) rotate(-77.65)"/>
    <text id="key-text-b" class="cls-1" transform="translate(1188.33 690.64) rotate(12.35)"><tspan x="0" y="0" xml:space="preserve"> B</tspan></text>
  </g>
  <g id="key-c">
    <path id="key-outline-c" class="cls-6" d="M897.41,696.75c-18.71-4.1-37.42-8.18-56.12-12.29-8.32-1.83-12.26-7.53-10.49-15.68,8.27-38.08,16.6-76.14,25-114.19,1.73-7.85,7.94-11.33,16.97-9.56,8.33,1.63,16.6,3.59,24.9,5.4,27.98,6.12,55.96,12.24,83.93,18.38,12.41,2.72,15.7,7.94,12.97,20.42-7.9,36.11-15.81,72.23-23.72,108.33-2.18,9.94-7.83,13.54-17.81,11.36-18.55-4.04-37.09-8.11-55.63-12.17Z"/>
    <path id="key-inline-c" class="cls-8" d="M859.82,605.06c3.1-14.15,6.17-28.3,9.3-42.44,1.7-7.69,6.63-10.87,14.3-9.19,28.04,6.11,56.07,12.26,84.11,18.41,8.74,1.92,12.65,7.92,10.71,16.95-4.83,22.46-9.8,44.88-14.71,67.32-1,4.55-1.96,9.11-3,13.66-1.89,8.28-8.71,13.1-17.08,11.33-27.58-5.86-55.13-11.9-82.64-18.09-8.32-1.87-11.89-8.17-10.07-16.49,3.02-13.82,6.05-27.64,9.08-41.46Z"/>
    <rect class="cls-7" x="899.37" y="597.98" width="29.87" height="44.98" transform="translate(112.63 1380.91) rotate(-77.65)"/>
    <text id="key-text-c" class="cls-1" transform="translate(889.94 626.41) rotate(12.35)"><tspan x="0" y="0" xml:space="preserve"> C</tspan></text>
  </g>
  <g id="key-v">
    <path id="key-outline-v" class="cls-6" d="M1045.23,729.03c-18.71-4.1-37.42-8.18-56.12-12.29-8.32-1.83-12.26-7.53-10.49-15.68,8.27-38.08,16.6-76.14,25-114.19,1.73-7.85,7.94-11.33,16.97-9.56,8.33,1.63,16.6,3.59,24.9,5.4,27.98,6.12,55.96,12.24,83.93,18.38,12.41,2.72,15.7,7.94,12.97,20.42-7.9,36.11-15.81,72.23-23.72,108.33-2.18,9.94-7.83,13.54-17.81,11.36-18.55-4.04-37.09-8.11-55.63-12.17Z"/>
    <path id="key-inline-v" class="cls-8" d="M1007.63,637.34c3.1-14.15,6.17-28.3,9.3-42.44,1.7-7.69,6.63-10.87,14.3-9.19,28.04,6.11,56.07,12.26,84.11,18.41,8.74,1.92,12.65,7.92,10.71,16.95-4.83,22.46-9.8,44.88-14.71,67.32-1,4.55-1.96,9.11-3,13.66-1.89,8.28-8.71,13.1-17.08,11.33-27.58-5.86-55.13-11.9-82.64-18.09-8.32-1.87-11.89-8.17-10.07-16.49,3.02-13.82,6.06-27.64,9.08-41.46Z"/>
    <rect class="cls-7" x="1046.81" y="630.56" width="29.87" height="44.19" transform="translate(197.09 1550.24) rotate(-77.65)"/>
    <text id="key-text-v" class="cls-1" transform="translate(1037.76 658.68) rotate(12.35)"><tspan x="0" y="0" xml:space="preserve"> V</tspan></text>
  </g>
  <g id="key-x">
    <path id="key-outline-x" class="cls-6" d="M749.37,666.14c-18.71-4.1-37.42-8.18-56.12-12.29-8.32-1.83-12.26-7.53-10.49-15.68,8.27-38.08,16.6-76.14,25-114.19,1.73-7.85,7.94-11.33,16.97-9.56,8.33,1.63,16.6,3.59,24.9,5.4,27.98,6.12,55.96,12.24,83.93,18.38,12.41,2.72,15.7,7.94,12.97,20.42-7.9,36.11-15.81,72.23-23.72,108.33-2.18,9.94-7.83,13.54-17.81,11.36-18.55-4.04-37.09-8.11-55.63-12.17Z"/>
    <path id="key-inline-x" class="cls-8" d="M711.77,574.45c3.1-14.15,6.17-28.3,9.3-42.44,1.7-7.69,6.63-10.87,14.3-9.19,28.04,6.11,56.07,12.26,84.11,18.41,8.74,1.92,12.65,7.92,10.71,16.95-4.83,22.46-9.8,44.88-14.71,67.32-1,4.55-1.96,9.11-3,13.66-1.89,8.28-8.71,13.1-17.08,11.33-27.58-5.86-55.13-11.9-82.64-18.09-8.32-1.87-11.89-8.17-10.07-16.49,3.02-13.82,6.06-27.64,9.08-41.46Z"/>
    <rect class="cls-7" x="752.65" y="566.3" width="29.87" height="47.7" transform="translate(26.91 1213.75) rotate(-77.65)"/>
    <text id="key-text-x" class="cls-1" transform="translate(741.9 595.8) rotate(12.35)"><tspan x="0" y="0" xml:space="preserve"> X</tspan></text>
  </g>
  <g id="key-til">
    <path id="key-outline-til" class="cls-6" d="M365.68,190c-19.15,0-38.3,0-57.45,0-8.51,0-13.58-4.73-13.6-13.08-.07-38.97-.07-77.93,0-116.9.01-8.03,5.33-12.76,14.53-12.97,8.49-.19,16.98-.05,25.48-.05,28.64,0,57.28,0,85.92,0,12.7,0,17.03,4.39,17.03,17.17,0,36.97.01,73.93,0,110.9,0,10.18-4.75,14.9-14.97,14.91-18.97.03-37.96.02-56.94.02Z"/>
    <path id="key-inline-til" class="cls-8" d="M306.4,111.49c0-14.48-.02-28.96.01-43.44.02-7.87,4.27-12.03,12.35-12.04,29.53-.03,59.05,0,88.58,0,9.21,0,14.46,5.04,14.49,14.27.09,22.97.03,45.94.03,68.91,0,4.66.03,9.32-.01,13.98-.08,8.5-5.87,14.66-14.67,14.72-29.01.17-58.02.17-87.03,0-8.77-.05-13.75-5.44-13.75-13.95,0-14.15,0-28.3,0-42.45Z"/>
    <rect class="cls-7" x="334.68" y="80.83" width="58.92" height="75.65"/>
    <g id="key-text-til" class="cls-2">
      <text class="cls-3" transform="translate(353.75 106.75)"><tspan x="0" y="0">~</tspan></text>
      <text class="cls-3" transform="translate(358.02 149.95)"><tspan x="0" y="0">`</tspan></text>
    </g>
  </g>
  <g id="key-lesc">
    <path id="key-inline-lesc" class="cls-8" d="M114.73,72.48c0-15.33-.02-30.65.01-45.98.02-8.33,4.38-12.73,12.68-12.74,30.31-.03,60.62-.02,90.93-.01,9.45,0,14.84,5.33,14.88,15.1.09,24.31.03,48.62.03,72.93,0,4.93.04,9.86,0,14.8-.08,8.99-6.02,15.52-15.06,15.57-29.78.18-59.56.18-89.34,0-9-.05-14.11-5.75-14.12-14.76-.01-14.97,0-29.95,0-44.92Z"/>
    <path id="key-outline-lesc" class="cls-6" d="M104,82.23c0-19.32-.02-38.64.01-57.96.01-8.73,4.5-13.25,13.2-13.25,38.47-.02,76.95-.02,115.42,0,9.09,0,13.36,4.34,13.37,13.53,0,38.64,0,77.28,0,115.92,0,8.49-4.75,13.5-13.17,13.51-38.47.06-76.95.06-115.42,0-8.72,0-13.4-4.93-13.4-13.79-.02-19.33-.01-38.65-.01-57.97ZM118,72.51c0,14.15-.01,28.31,0,42.46.01,8.52,4.83,13.91,13.34,13.95,28.14.16,56.28.17,84.42,0,8.54-.05,14.15-6.22,14.23-14.72.04-4.66,0-9.32,0-13.99,0-22.98.05-45.96-.03-68.93-.04-9.23-5.14-14.27-14.06-14.27-28.64-.01-57.28-.02-85.92.01-7.84.01-11.96,4.17-11.98,12.04-.03,14.49-.01,28.97-.01,43.46Z"/>
    <rect class="cls-7" x="145.34" y="59.3" width="58.92" height="29.87"/>
    <g id="key-text-lesc" class="cls-2">
      <text class="cls-5" transform="translate(145.34 85.22)"><tspan x="0" y="0">E</tspan></text>
      <text class="cls-5" transform="translate(166.36 85.22)"><tspan x="0" y="0">s</tspan></text>
      <text class="cls-3" transform="translate(183.86 85.22)"><tspan x="0" y="0">c</tspan></text>
    </g>
  </g>
  <g id="key-pageup">
    <path id="key-inline-pageup" class="cls-8" d="M134.5,165.6c9.56-.03,19.17,0,28.85.09,2.01.02,4.03.04,6.04.07,2.23.03,4.46.06,6.7.1,2.18.03,4.36.07,6.54.11.55.1,1.16.24,1.81.45.83.27,1.56.58,2.16.89.29.09.62.22.97.41.73.41,1.23.92,1.53,1.29.35.31.73.69,1.1,1.13.58.68,1.01,1.35,1.32,1.93.28.5.55,1.09.81,1.74.43,1.11.67,2.13.8,2.98.12.4.23.87.3,1.39.13.94.1,1.76.02,2.4.68,26.34.76,53.15.15,80.41-.06,2.66-.12,5.32-.2,7.97.02.6,0,1.4-.21,2.32-.2.92-.5,1.67-.77,2.22-.19.53-.43,1.11-.75,1.73-.41.79-.84,1.46-1.25,2.01-.66.78-1.31,1.55-1.97,2.33-.88.55-1.77,1.1-2.65,1.65l-4.07,1.88-92.21-.13-4.23-.5-3.16-1.2-2.37-1.67-1.92-2.26-1.5-3.16-.88-2.76v-94.78l.83-3.83,1.64-3.09,2.61-2.3,2.33-1.04,3.07-.63,35.75-.13,12.81-.02Z"/>
    <path id="key-outline-pageup" class="cls-6" d="M62.87,233.24c0-19.32-.02-38.64,0-57.96,0-8.73,4.61-13.25,13.51-13.25,39.37-.02,78.74-.02,118.11,0,9.3,0,13.67,4.34,13.68,13.53,0,38.64,0,77.28,0,115.92,0,8.49-4.86,13.5-13.48,13.51-39.37.06-78.74.06-118.11.01-8.93-.01-13.71-4.93-13.71-13.79-.02-19.33,0-38.65,0-57.97ZM77.2,223.52c0,14.15-.01,28.31,0,42.46.01,8.52,4.94,13.91,13.65,13.95,28.79.16,57.59.17,86.38-.01,8.74-.05,14.48-6.22,14.56-14.72.04-4.66,0-9.32,0-13.99,0-22.98.06-45.96-.03-68.93-.03-9.24-5.25-14.27-14.38-14.28-29.3,0-58.61-.02-87.91,0-8.02,0-12.24,4.17-12.26,12.04-.04,14.5-.02,28.99-.02,43.47Z"/>
    <rect class="cls-7" x="91.18" y="192.04" width="88.7" height="82.96"/>
    <g id="key-text-pageup" class="cls-2">
      <text class="cls-4" transform="translate(95.15 216.52)"><tspan x="0" y="0">Page</tspan></text>
      <text class="cls-4" transform="translate(112.59 257.32)"><tspan x="0" y="0">Up</tspan></text>
    </g>
  </g>
  <g id="key-pagedown">
    <path id="key-inline-pagedown" class="cls-8" d="M97.64,314.92c9.77-.03,19.6,0,29.48.1,2.06.02,4.12.04,6.18.07,2.28.03,4.56.06,6.85.1,2.23.04,4.46.07,6.68.12.56.1,1.18.25,1.85.46.85.27,1.59.59,2.21.91.29.09.63.22,1,.42.75.42,1.26.94,1.56,1.33.36.32.74.71,1.13,1.16.59.7,1.03,1.39,1.35,1.98.28.52.57,1.11.83,1.78.44,1.13.68,2.18.82,3.05.12.41.23.89.31,1.42.13.96.1,1.8.03,2.46.7,26.99.77,54.46.15,82.39-.06,2.73-.13,5.45-.2,8.16.02.62,0,1.44-.21,2.37-.2.95-.51,1.71-.78,2.27-.19.54-.44,1.14-.77,1.77-.42.81-.86,1.5-1.27,2.06-.67.79-1.34,1.59-2.02,2.38-.9.56-1.81,1.13-2.71,1.69l-4.16,1.93-94.24-.13-4.32-.52-3.23-1.23-2.42-1.71-1.97-2.32-1.54-3.24-.9-2.83v-97.11l.85-3.92,1.68-3.17,2.67-2.36,2.38-1.07,3.14-.65,36.54-.13h13.05Z"/>
    <path id="key-outline-pagedown" class="cls-6" d="M26.19,384.27c0-19.32-.02-38.64.01-57.96.01-8.73,4.61-13.25,13.51-13.25,39.37-.02,78.74-.02,118.11,0,9.3,0,13.67,4.34,13.68,13.53,0,38.64,0,77.28,0,115.92,0,8.49-4.86,13.5-13.48,13.51-39.37.06-78.74.06-118.11.01-8.93-.01-13.71-4.93-13.71-13.79-.02-19.33-.01-38.65-.01-57.97ZM40.51,374.55c0,14.15,0,28.31,0,42.46,0,8.52,4.94,13.91,13.65,13.95,28.79.16,57.59.17,86.38-.01,8.74-.05,14.48-6.22,14.56-14.72.04-4.66,0-9.32,0-13.99,0-22.98.06-45.96-.03-68.93-.03-9.24-5.25-14.27-14.38-14.28-29.3-.01-58.61-.02-87.91.01-8.02.01-12.24,4.17-12.26,12.04-.04,14.5,0,28.99-.02,43.47Z"/>
    <rect class="cls-7" x="49.71" y="337.99" width="96.21" height="82.96"/>
    <g id="key-text-pagedown" class="cls-2">
      <text class="cls-4" transform="translate(57.44 362.47)"><tspan x="0" y="0">Page</tspan></text>
      <text class="cls-4" transform="translate(52.31 403.27)"><tspan x="0" y="0">Down</tspan></text>
    </g>
  </g>
</svg>
